<svg xmlns="http://www.w3.org/2000/svg" xmlns:xlink="http://www.w3.org/1999/xlink" width="500" zoomAndPan="magnify" viewBox="0 0 375 374.999991" height="500" preserveAspectRatio="xMidYMid meet" version="1.0"><defs><g/><clipPath id="e914faef7c"><path d="M 72.714844 49 L 302.214844 49 L 302.214844 199.261719 L 72.714844 199.261719 Z M 72.714844 49 " clip-rule="nonzero"/></clipPath></defs><rect x="-37.5" width="450" fill="#ffffff" y="-37.499999" height="449.999989" fill-opacity="1"/><rect x="-37.5" width="450" fill="#19223b" y="-37.499999" height="449.999989" fill-opacity="1"/><g clip-path="url(#e914faef7c)"><path fill="#edb522" d="M 176.457031 179.804688 L 176.457031 168.179688 C 176.457031 162.113281 181.421875 157.148438 187.488281 157.148438 C 187.988281 157.148438 188.480469 157.1875 188.960938 157.25 C 194.335938 157.976562 198.519531 162.613281 198.519531 168.179688 L 198.519531 179.804688 C 194.882812 179.714844 191.203125 179.667969 187.488281 179.667969 C 183.773438 179.667969 180.097656 179.714844 176.457031 179.804688 Z M 117.480469 178.230469 C 117.480469 174.382812 120.628906 171.234375 124.476562 171.234375 C 124.792969 171.234375 125.105469 171.257812 125.410156 171.300781 C 128.820312 171.761719 131.472656 174.699219 131.472656 178.230469 L 131.472656 183.328125 C 126.640625 183.996094 121.972656 184.746094 117.480469 185.574219 Z M 119.566406 152.800781 C 119.566406 150.097656 121.777344 147.886719 124.476562 147.886719 C 124.796875 147.886719 125.109375 147.921875 125.410156 147.980469 C 127.671875 148.417969 129.390625 150.417969 129.390625 152.800781 L 129.390625 160.519531 L 119.566406 160.519531 Z M 179.742188 128.082031 C 179.742188 123.824219 183.230469 120.335938 187.488281 120.335938 C 187.992188 120.335938 188.484375 120.390625 188.960938 120.484375 C 192.523438 121.175781 195.234375 124.324219 195.234375 128.082031 L 195.234375 140.253906 L 179.742188 140.253906 Z M 243.503906 178.230469 C 243.503906 174.382812 246.652344 171.234375 250.5 171.234375 C 250.816406 171.234375 251.128906 171.257812 251.433594 171.300781 C 254.84375 171.761719 257.496094 174.699219 257.496094 178.230469 L 257.496094 185.574219 C 253.007812 184.746094 248.335938 183.996094 243.503906 183.328125 Z M 245.589844 152.800781 C 245.589844 150.097656 247.800781 147.886719 250.5 147.886719 C 250.820312 147.886719 251.132812 147.921875 251.433594 147.980469 C 253.691406 148.417969 255.414062 150.417969 255.414062 152.800781 L 255.414062 160.519531 L 245.589844 160.519531 Z M 270.226562 188.242188 L 270.226562 149.632812 C 270.226562 144.511719 274.382812 140.355469 279.503906 140.355469 C 279.503906 140.355469 279.488281 140.355469 279.472656 140.355469 C 279.492188 140.355469 279.503906 140.355469 279.503906 140.355469 L 279.503906 129.035156 L 275.675781 129.035156 L 275.675781 121.714844 L 265.949219 121.714844 L 265.949219 129.035156 L 255.671875 129.035156 L 255.671875 121.714844 L 245.945312 121.714844 L 245.945312 129.035156 L 235.046875 129.035156 L 235.046875 121.714844 L 225.324219 121.714844 L 225.324219 129.035156 L 221.5 129.035156 L 221.5 140.355469 C 226.621094 140.355469 230.773438 144.511719 230.773438 149.632812 L 230.773438 181.804688 C 226.796875 181.398438 222.734375 181.046875 218.59375 180.753906 L 218.59375 123.089844 C 218.59375 115.011719 225.140625 108.464844 233.21875 108.464844 C 233.21875 108.464844 232.914062 108.429688 232.378906 108.398438 C 232.910156 108.421875 233.21875 108.464844 233.21875 108.464844 L 233.21875 90.609375 L 227.183594 90.609375 L 227.183594 79.074219 L 211.851562 79.074219 L 211.851562 90.609375 L 195.640625 90.609375 L 195.640625 79.074219 L 188.515625 79.074219 L 188.515625 58.46875 C 190.703125 57.574219 195.589844 56.09375 203.027344 56.703125 C 213.441406 57.558594 221.695312 53.121094 221.695312 53.121094 C 221.695312 53.121094 210.027344 56.363281 201.832031 52.4375 C 193.636719 48.507812 188.515625 49.875 188.515625 49.875 L 186.464844 49.875 L 186.464844 79.074219 L 180.308594 79.074219 L 180.308594 90.609375 L 163.128906 90.609375 L 163.128906 79.074219 L 147.792969 79.074219 L 147.792969 90.609375 L 141.761719 90.609375 L 141.761719 108.464844 C 149.835938 108.464844 156.382812 115.011719 156.382812 123.089844 L 156.382812 180.753906 C 152.246094 181.046875 148.183594 181.398438 144.203125 181.804688 L 144.203125 149.632812 C 144.203125 144.511719 148.355469 140.355469 153.480469 140.355469 L 153.480469 129.035156 L 149.652344 129.035156 L 149.652344 121.714844 L 139.929688 121.714844 L 139.929688 129.035156 L 129.648438 129.035156 L 129.648438 121.714844 L 119.921875 121.714844 L 119.921875 129.035156 L 109.027344 129.035156 L 109.027344 121.714844 L 99.300781 121.714844 L 99.300781 129.035156 L 95.476562 129.035156 L 95.476562 140.355469 C 100.597656 140.355469 104.75 144.511719 104.75 149.632812 L 104.75 188.242188 C 91.894531 191.285156 81.007812 195.023438 72.75 199.261719 C 99.769531 190.414062 141.125 184.75 187.488281 184.75 C 233.855469 184.75 275.207031 190.414062 302.226562 199.261719 C 293.96875 195.023438 283.085938 191.285156 270.226562 188.242188 " fill-opacity="1" fill-rule="nonzero"/></g><g fill="#fffcf9" fill-opacity="1"><g transform="translate(31.779871, 234.637209)"><g><path d="M 1.09375 0 L 1.09375 -1.203125 L 1.46875 -1.203125 C 1.789062 -1.203125 2.09375 -1.222656 2.375 -1.265625 C 2.664062 -1.316406 2.914062 -1.414062 3.125 -1.5625 C 3.34375 -1.707031 3.515625 -1.914062 3.640625 -2.1875 C 3.765625 -2.457031 3.828125 -2.820312 3.828125 -3.28125 L 3.828125 -17.265625 C 3.828125 -17.722656 3.765625 -18.085938 3.640625 -18.359375 C 3.515625 -18.628906 3.34375 -18.835938 3.125 -18.984375 C 2.914062 -19.128906 2.664062 -19.222656 2.375 -19.265625 C 2.09375 -19.316406 1.789062 -19.34375 1.46875 -19.34375 L 1.09375 -19.34375 L 1.09375 -20.546875 L 9.46875 -20.546875 L 9.46875 -19.34375 L 9.09375 -19.34375 C 8.769531 -19.34375 8.460938 -19.316406 8.171875 -19.265625 C 7.890625 -19.222656 7.640625 -19.132812 7.421875 -19 C 7.210938 -18.863281 7.046875 -18.664062 6.921875 -18.40625 C 6.796875 -18.144531 6.734375 -17.804688 6.734375 -17.390625 L 6.734375 -1.4375 L 12.40625 -1.4375 C 12.84375 -1.4375 13.210938 -1.507812 13.515625 -1.65625 C 13.816406 -1.8125 14.066406 -2.015625 14.265625 -2.265625 C 14.460938 -2.515625 14.613281 -2.789062 14.71875 -3.09375 C 14.820312 -3.40625 14.894531 -3.71875 14.9375 -4.03125 L 15.21875 -6.1875 L 16.71875 -6.1875 L 16.53125 0 Z M 1.09375 0 "/></g></g></g><g fill="#fffcf9" fill-opacity="1"><g transform="translate(49.710959, 234.637209)"><g><path d="M 6.734375 -1.4375 L 12.28125 -1.4375 C 12.738281 -1.4375 13.128906 -1.5 13.453125 -1.625 C 13.773438 -1.75 14.046875 -1.914062 14.265625 -2.125 C 14.484375 -2.34375 14.648438 -2.59375 14.765625 -2.875 C 14.890625 -3.164062 14.972656 -3.472656 15.015625 -3.796875 L 15.21875 -5.03125 L 16.71875 -5.03125 L 16.53125 0 L 1.09375 0 L 1.09375 -1.203125 L 1.46875 -1.203125 C 1.78125 -1.203125 2.078125 -1.222656 2.359375 -1.265625 C 2.648438 -1.304688 2.898438 -1.394531 3.109375 -1.53125 C 3.328125 -1.664062 3.5 -1.859375 3.625 -2.109375 C 3.757812 -2.367188 3.828125 -2.710938 3.828125 -3.140625 L 3.828125 -17.265625 C 3.828125 -17.722656 3.765625 -18.085938 3.640625 -18.359375 C 3.515625 -18.628906 3.34375 -18.835938 3.125 -18.984375 C 2.914062 -19.128906 2.664062 -19.222656 2.375 -19.265625 C 2.09375 -19.316406 1.789062 -19.34375 1.46875 -19.34375 L 1.09375 -19.34375 L 1.09375 -20.546875 L 15.59375 -20.546875 L 15.734375 -15.515625 L 14.25 -15.515625 L 14.109375 -16.75 C 14.066406 -17.070312 13.992188 -17.375 13.890625 -17.65625 C 13.785156 -17.945312 13.628906 -18.195312 13.421875 -18.40625 C 13.222656 -18.625 12.972656 -18.796875 12.671875 -18.921875 C 12.367188 -19.046875 12 -19.109375 11.5625 -19.109375 L 6.734375 -19.109375 L 6.734375 -11.453125 L 13.671875 -11.453125 L 13.671875 -10.046875 L 6.734375 -10.046875 Z M 6.734375 -1.4375 "/></g></g></g><g fill="#fffcf9" fill-opacity="1"><g transform="translate(67.642048, 234.637209)"><g/></g></g><g fill="#fffcf9" fill-opacity="1"><g transform="translate(75.118019, 234.637209)"><g><path d="M 10.875 -20.84375 C 11.863281 -20.84375 12.71875 -20.757812 13.4375 -20.59375 C 14.164062 -20.425781 14.769531 -20.195312 15.25 -19.90625 C 15.738281 -19.625 16.101562 -19.285156 16.34375 -18.890625 C 16.582031 -18.492188 16.703125 -18.066406 16.703125 -17.609375 C 16.703125 -17.296875 16.632812 -17.015625 16.5 -16.765625 C 16.375 -16.523438 16.195312 -16.316406 15.96875 -16.140625 C 15.75 -15.960938 15.488281 -15.828125 15.1875 -15.734375 C 14.882812 -15.640625 14.550781 -15.59375 14.1875 -15.59375 C 14.1875 -16.050781 14.128906 -16.5 14.015625 -16.9375 C 13.898438 -17.375 13.707031 -17.769531 13.4375 -18.125 C 13.175781 -18.476562 12.832031 -18.765625 12.40625 -18.984375 C 11.976562 -19.203125 11.453125 -19.3125 10.828125 -19.3125 C 9.734375 -19.3125 8.804688 -19.109375 8.046875 -18.703125 C 7.296875 -18.304688 6.679688 -17.726562 6.203125 -16.96875 C 5.722656 -16.207031 5.375 -15.265625 5.15625 -14.140625 C 4.9375 -13.023438 4.828125 -11.742188 4.828125 -10.296875 C 4.828125 -9.015625 4.941406 -7.835938 5.171875 -6.765625 C 5.398438 -5.703125 5.753906 -4.785156 6.234375 -4.015625 C 6.722656 -3.253906 7.34375 -2.660156 8.09375 -2.234375 C 8.851562 -1.816406 9.765625 -1.609375 10.828125 -1.609375 C 11.523438 -1.609375 12.140625 -1.675781 12.671875 -1.8125 C 13.210938 -1.957031 13.691406 -2.140625 14.109375 -2.359375 C 14.523438 -2.585938 14.890625 -2.847656 15.203125 -3.140625 C 15.515625 -3.429688 15.789062 -3.738281 16.03125 -4.0625 C 16.195312 -3.957031 16.328125 -3.816406 16.421875 -3.640625 C 16.523438 -3.460938 16.578125 -3.226562 16.578125 -2.9375 C 16.578125 -2.570312 16.453125 -2.195312 16.203125 -1.8125 C 15.960938 -1.4375 15.585938 -1.09375 15.078125 -0.78125 C 14.578125 -0.476562 13.9375 -0.222656 13.15625 -0.015625 C 12.375 0.179688 11.453125 0.28125 10.390625 0.28125 C 8.953125 0.28125 7.6875 0.03125 6.59375 -0.46875 C 5.507812 -0.976562 4.597656 -1.695312 3.859375 -2.625 C 3.128906 -3.550781 2.578125 -4.664062 2.203125 -5.96875 C 1.828125 -7.269531 1.640625 -8.710938 1.640625 -10.296875 C 1.640625 -11.859375 1.835938 -13.285156 2.234375 -14.578125 C 2.628906 -15.867188 3.210938 -16.976562 3.984375 -17.90625 C 4.753906 -18.832031 5.710938 -19.550781 6.859375 -20.0625 C 8.015625 -20.582031 9.351562 -20.84375 10.875 -20.84375 Z M 10.875 -20.84375 "/></g></g></g><g fill="#fffcf9" fill-opacity="1"><g transform="translate(92.782108, 234.637209)"><g><path d="M 13.34375 0 L 13.34375 -1.203125 L 13.734375 -1.203125 C 14.054688 -1.203125 14.359375 -1.222656 14.640625 -1.265625 C 14.929688 -1.316406 15.179688 -1.414062 15.390625 -1.5625 C 15.609375 -1.707031 15.78125 -1.914062 15.90625 -2.1875 C 16.03125 -2.457031 16.09375 -2.820312 16.09375 -3.28125 L 16.09375 -10.015625 L 6.734375 -10.015625 L 6.734375 -3.28125 C 6.734375 -2.820312 6.796875 -2.457031 6.921875 -2.1875 C 7.046875 -1.914062 7.210938 -1.707031 7.421875 -1.5625 C 7.640625 -1.414062 7.890625 -1.316406 8.171875 -1.265625 C 8.460938 -1.222656 8.769531 -1.203125 9.09375 -1.203125 L 9.46875 -1.203125 L 9.46875 0 L 1.09375 0 L 1.09375 -1.203125 L 1.46875 -1.203125 C 1.789062 -1.203125 2.09375 -1.222656 2.375 -1.265625 C 2.664062 -1.316406 2.914062 -1.414062 3.125 -1.5625 C 3.34375 -1.707031 3.515625 -1.914062 3.640625 -2.1875 C 3.765625 -2.457031 3.828125 -2.820312 3.828125 -3.28125 L 3.828125 -17.390625 C 3.828125 -17.804688 3.757812 -18.144531 3.625 -18.40625 C 3.5 -18.664062 3.328125 -18.863281 3.109375 -19 C 2.898438 -19.132812 2.648438 -19.222656 2.359375 -19.265625 C 2.078125 -19.316406 1.78125 -19.34375 1.46875 -19.34375 L 1.09375 -19.34375 L 1.09375 -20.546875 L 9.46875 -20.546875 L 9.46875 -19.34375 L 9.09375 -19.34375 C 8.769531 -19.34375 8.460938 -19.316406 8.171875 -19.265625 C 7.890625 -19.222656 7.640625 -19.128906 7.421875 -18.984375 C 7.210938 -18.835938 7.046875 -18.628906 6.921875 -18.359375 C 6.796875 -18.085938 6.734375 -17.722656 6.734375 -17.265625 L 6.734375 -11.453125 L 16.09375 -11.453125 L 16.09375 -17.265625 C 16.09375 -17.722656 16.03125 -18.085938 15.90625 -18.359375 C 15.78125 -18.628906 15.609375 -18.835938 15.390625 -18.984375 C 15.179688 -19.128906 14.929688 -19.222656 14.640625 -19.265625 C 14.359375 -19.316406 14.054688 -19.34375 13.734375 -19.34375 L 13.34375 -19.34375 L 13.34375 -20.546875 L 21.71875 -20.546875 L 21.71875 -19.34375 L 21.359375 -19.34375 C 21.035156 -19.34375 20.726562 -19.316406 20.4375 -19.265625 C 20.15625 -19.222656 19.90625 -19.128906 19.6875 -18.984375 C 19.46875 -18.835938 19.296875 -18.628906 19.171875 -18.359375 C 19.054688 -18.085938 19 -17.722656 19 -17.265625 L 19 -3.140625 C 19 -2.710938 19.0625 -2.367188 19.1875 -2.109375 C 19.3125 -1.859375 19.484375 -1.664062 19.703125 -1.53125 C 19.921875 -1.394531 20.171875 -1.304688 20.453125 -1.265625 C 20.742188 -1.222656 21.046875 -1.203125 21.359375 -1.203125 L 21.71875 -1.203125 L 21.71875 0 Z M 13.34375 0 "/></g></g></g><g fill="#fffcf9" fill-opacity="1"><g transform="translate(115.603494, 234.637209)"><g><path d="M 5.8125 -6.875 L 4.71875 -3.84375 C 4.632812 -3.625 4.566406 -3.40625 4.515625 -3.1875 C 4.472656 -2.96875 4.453125 -2.773438 4.453125 -2.609375 C 4.453125 -2.128906 4.609375 -1.773438 4.921875 -1.546875 C 5.234375 -1.316406 5.710938 -1.203125 6.359375 -1.203125 L 7.03125 -1.203125 L 7.03125 0 L 0 0 L 0 -1.203125 L 0.546875 -1.203125 C 0.828125 -1.203125 1.066406 -1.234375 1.265625 -1.296875 C 1.460938 -1.359375 1.640625 -1.472656 1.796875 -1.640625 C 1.953125 -1.804688 2.101562 -2.035156 2.25 -2.328125 C 2.394531 -2.617188 2.554688 -2.992188 2.734375 -3.453125 L 9.125 -20.546875 L 11.375 -20.546875 L 17.875 -2.734375 C 17.988281 -2.441406 18.101562 -2.195312 18.21875 -2 C 18.332031 -1.800781 18.46875 -1.640625 18.625 -1.515625 C 18.789062 -1.398438 18.972656 -1.316406 19.171875 -1.265625 C 19.378906 -1.222656 19.625 -1.203125 19.90625 -1.203125 L 20.296875 -1.203125 L 20.296875 0 L 12.375 0 L 12.375 -1.203125 L 13.046875 -1.203125 C 14.191406 -1.203125 14.765625 -1.660156 14.765625 -2.578125 C 14.765625 -2.742188 14.742188 -2.910156 14.703125 -3.078125 C 14.660156 -3.242188 14.601562 -3.4375 14.53125 -3.65625 L 13.375 -6.875 Z M 11.078125 -13.34375 C 10.773438 -14.195312 10.5 -14.992188 10.25 -15.734375 C 10 -16.484375 9.796875 -17.207031 9.640625 -17.90625 C 9.578125 -17.5625 9.5 -17.226562 9.40625 -16.90625 C 9.320312 -16.582031 9.226562 -16.25 9.125 -15.90625 C 9.019531 -15.570312 8.898438 -15.21875 8.765625 -14.84375 C 8.640625 -14.476562 8.488281 -14.070312 8.3125 -13.625 L 6.359375 -8.3125 L 12.859375 -8.3125 Z M 5.9375 -22.5625 C 6.164062 -22.84375 6.414062 -23.160156 6.6875 -23.515625 C 6.957031 -23.867188 7.222656 -24.234375 7.484375 -24.609375 C 7.753906 -24.992188 8.003906 -25.375 8.234375 -25.75 C 8.472656 -26.132812 8.664062 -26.484375 8.8125 -26.796875 L 11.546875 -26.796875 C 11.691406 -26.484375 11.878906 -26.132812 12.109375 -25.75 C 12.347656 -25.375 12.597656 -24.992188 12.859375 -24.609375 C 13.128906 -24.234375 13.398438 -23.867188 13.671875 -23.515625 C 13.953125 -23.160156 14.203125 -22.84375 14.421875 -22.5625 L 14.421875 -22.1875 L 13.296875 -22.1875 C 12.742188 -22.507812 12.191406 -22.90625 11.640625 -23.375 C 11.085938 -23.851562 10.597656 -24.320312 10.171875 -24.78125 C 9.722656 -24.320312 9.226562 -23.851562 8.6875 -23.375 C 8.144531 -22.90625 7.601562 -22.507812 7.0625 -22.1875 L 5.9375 -22.1875 Z M 5.9375 -22.5625 "/></g></g></g><g fill="#fffcf9" fill-opacity="1"><g transform="translate(135.895416, 234.637209)"><g><path d="M 10.25 -3.28125 C 10.25 -2.820312 10.3125 -2.457031 10.4375 -2.1875 C 10.5625 -1.914062 10.726562 -1.707031 10.9375 -1.5625 C 11.144531 -1.414062 11.394531 -1.316406 11.6875 -1.265625 C 11.976562 -1.222656 12.285156 -1.203125 12.609375 -1.203125 L 13.265625 -1.203125 L 13.265625 0 L 4.3125 0 L 4.3125 -1.203125 L 4.96875 -1.203125 C 5.289062 -1.203125 5.59375 -1.222656 5.875 -1.265625 C 6.164062 -1.304688 6.414062 -1.394531 6.625 -1.53125 C 6.84375 -1.664062 7.015625 -1.859375 7.140625 -2.109375 C 7.265625 -2.367188 7.328125 -2.710938 7.328125 -3.140625 L 7.328125 -19.109375 L 4.578125 -19.109375 C 4.160156 -19.109375 3.804688 -19.046875 3.515625 -18.921875 C 3.234375 -18.796875 3 -18.625 2.8125 -18.40625 C 2.632812 -18.195312 2.5 -17.945312 2.40625 -17.65625 C 2.320312 -17.375 2.257812 -17.070312 2.21875 -16.75 L 2.0625 -15.515625 L 0.578125 -15.515625 L 0.71875 -20.546875 L 16.921875 -20.546875 L 17.0625 -15.515625 L 15.578125 -15.515625 L 15.4375 -16.75 C 15.394531 -17.070312 15.328125 -17.375 15.234375 -17.65625 C 15.140625 -17.945312 15.003906 -18.195312 14.828125 -18.40625 C 14.648438 -18.625 14.414062 -18.796875 14.125 -18.921875 C 13.832031 -19.046875 13.472656 -19.109375 13.046875 -19.109375 L 10.25 -19.109375 Z M 10.25 -3.28125 "/></g></g></g><g fill="#fffcf9" fill-opacity="1"><g transform="translate(153.5314, 234.637209)"><g><path d="M 6.734375 -1.4375 L 12.28125 -1.4375 C 12.738281 -1.4375 13.128906 -1.5 13.453125 -1.625 C 13.773438 -1.75 14.046875 -1.914062 14.265625 -2.125 C 14.484375 -2.34375 14.648438 -2.59375 14.765625 -2.875 C 14.890625 -3.164062 14.972656 -3.472656 15.015625 -3.796875 L 15.21875 -5.03125 L 16.71875 -5.03125 L 16.53125 0 L 1.09375 0 L 1.09375 -1.203125 L 1.46875 -1.203125 C 1.78125 -1.203125 2.078125 -1.222656 2.359375 -1.265625 C 2.648438 -1.304688 2.898438 -1.394531 3.109375 -1.53125 C 3.328125 -1.664062 3.5 -1.859375 3.625 -2.109375 C 3.757812 -2.367188 3.828125 -2.710938 3.828125 -3.140625 L 3.828125 -17.265625 C 3.828125 -17.722656 3.765625 -18.085938 3.640625 -18.359375 C 3.515625 -18.628906 3.34375 -18.835938 3.125 -18.984375 C 2.914062 -19.128906 2.664062 -19.222656 2.375 -19.265625 C 2.09375 -19.316406 1.789062 -19.34375 1.46875 -19.34375 L 1.09375 -19.34375 L 1.09375 -20.546875 L 15.59375 -20.546875 L 15.734375 -15.515625 L 14.25 -15.515625 L 14.109375 -16.75 C 14.066406 -17.070312 13.992188 -17.375 13.890625 -17.65625 C 13.785156 -17.945312 13.628906 -18.195312 13.421875 -18.40625 C 13.222656 -18.625 12.972656 -18.796875 12.671875 -18.921875 C 12.367188 -19.046875 12 -19.109375 11.5625 -19.109375 L 6.734375 -19.109375 L 6.734375 -11.453125 L 13.671875 -11.453125 L 13.671875 -10.046875 L 6.734375 -10.046875 Z M 6.734375 -1.4375 "/></g></g></g><g fill="#fffcf9" fill-opacity="1"><g transform="translate(171.462488, 234.637209)"><g><path d="M 5.8125 -6.875 L 4.71875 -3.84375 C 4.632812 -3.625 4.566406 -3.40625 4.515625 -3.1875 C 4.472656 -2.96875 4.453125 -2.773438 4.453125 -2.609375 C 4.453125 -2.128906 4.609375 -1.773438 4.921875 -1.546875 C 5.234375 -1.316406 5.710938 -1.203125 6.359375 -1.203125 L 7.03125 -1.203125 L 7.03125 0 L 0 0 L 0 -1.203125 L 0.546875 -1.203125 C 0.828125 -1.203125 1.066406 -1.234375 1.265625 -1.296875 C 1.460938 -1.359375 1.640625 -1.472656 1.796875 -1.640625 C 1.953125 -1.804688 2.101562 -2.035156 2.25 -2.328125 C 2.394531 -2.617188 2.554688 -2.992188 2.734375 -3.453125 L 9.125 -20.546875 L 11.375 -20.546875 L 17.875 -2.734375 C 17.988281 -2.441406 18.101562 -2.195312 18.21875 -2 C 18.332031 -1.800781 18.46875 -1.640625 18.625 -1.515625 C 18.789062 -1.398438 18.972656 -1.316406 19.171875 -1.265625 C 19.378906 -1.222656 19.625 -1.203125 19.90625 -1.203125 L 20.296875 -1.203125 L 20.296875 0 L 12.375 0 L 12.375 -1.203125 L 13.046875 -1.203125 C 14.191406 -1.203125 14.765625 -1.660156 14.765625 -2.578125 C 14.765625 -2.742188 14.742188 -2.910156 14.703125 -3.078125 C 14.660156 -3.242188 14.601562 -3.4375 14.53125 -3.65625 L 13.375 -6.875 Z M 11.078125 -13.34375 C 10.773438 -14.195312 10.5 -14.992188 10.25 -15.734375 C 10 -16.484375 9.796875 -17.207031 9.640625 -17.90625 C 9.578125 -17.5625 9.5 -17.226562 9.40625 -16.90625 C 9.320312 -16.582031 9.226562 -16.25 9.125 -15.90625 C 9.019531 -15.570312 8.898438 -15.21875 8.765625 -14.84375 C 8.640625 -14.476562 8.488281 -14.070312 8.3125 -13.625 L 6.359375 -8.3125 L 12.859375 -8.3125 Z M 11.078125 -13.34375 "/></g></g></g><g fill="#fffcf9" fill-opacity="1"><g transform="translate(191.75441, 234.637209)"><g><path d="M 10.40625 0.28125 C 9.28125 0.28125 8.265625 0.160156 7.359375 -0.078125 C 6.460938 -0.316406 5.703125 -0.695312 5.078125 -1.21875 C 4.453125 -1.738281 3.972656 -2.40625 3.640625 -3.21875 C 3.316406 -4.039062 3.15625 -5.039062 3.15625 -6.21875 L 3.15625 -17.390625 C 3.15625 -17.804688 3.09375 -18.144531 2.96875 -18.40625 C 2.84375 -18.664062 2.671875 -18.863281 2.453125 -19 C 2.242188 -19.132812 1.992188 -19.222656 1.703125 -19.265625 C 1.421875 -19.316406 1.117188 -19.34375 0.796875 -19.34375 L 0.4375 -19.34375 L 0.4375 -20.546875 L 8.8125 -20.546875 L 8.8125 -19.34375 L 8.4375 -19.34375 C 8.113281 -19.34375 7.804688 -19.316406 7.515625 -19.265625 C 7.222656 -19.222656 6.972656 -19.128906 6.765625 -18.984375 C 6.554688 -18.835938 6.390625 -18.628906 6.265625 -18.359375 C 6.140625 -18.085938 6.078125 -17.722656 6.078125 -17.265625 L 6.078125 -6.046875 C 6.078125 -5.210938 6.191406 -4.5 6.421875 -3.90625 C 6.660156 -3.320312 6.992188 -2.847656 7.421875 -2.484375 C 7.847656 -2.117188 8.351562 -1.851562 8.9375 -1.6875 C 9.53125 -1.519531 10.175781 -1.4375 10.875 -1.4375 C 11.707031 -1.4375 12.425781 -1.546875 13.03125 -1.765625 C 13.632812 -1.992188 14.132812 -2.304688 14.53125 -2.703125 C 14.9375 -3.097656 15.234375 -3.570312 15.421875 -4.125 C 15.617188 -4.675781 15.71875 -5.28125 15.71875 -5.9375 L 15.71875 -17.390625 C 15.71875 -17.804688 15.648438 -18.144531 15.515625 -18.40625 C 15.390625 -18.664062 15.21875 -18.863281 15 -19 C 14.789062 -19.132812 14.539062 -19.222656 14.25 -19.265625 C 13.96875 -19.316406 13.664062 -19.34375 13.34375 -19.34375 L 12.984375 -19.34375 L 12.984375 -20.546875 L 20.203125 -20.546875 L 20.203125 -19.34375 L 19.828125 -19.34375 C 19.503906 -19.34375 19.195312 -19.316406 18.90625 -19.265625 C 18.625 -19.222656 18.375 -19.128906 18.15625 -18.984375 C 17.945312 -18.835938 17.78125 -18.628906 17.65625 -18.359375 C 17.53125 -18.085938 17.46875 -17.722656 17.46875 -17.265625 L 17.46875 -5.875 C 17.46875 -4.914062 17.316406 -4.054688 17.015625 -3.296875 C 16.710938 -2.535156 16.257812 -1.890625 15.65625 -1.359375 C 15.0625 -0.828125 14.320312 -0.421875 13.4375 -0.140625 C 12.5625 0.140625 11.550781 0.28125 10.40625 0.28125 Z M 10.40625 0.28125 "/></g></g></g><g fill="#fffcf9" fill-opacity="1"><g transform="translate(212.383594, 234.637209)"><g/></g></g><g fill="#fffcf9" fill-opacity="1"><g transform="translate(219.859565, 234.637209)"><g><path d="M 13.34375 0 L 13.34375 -1.203125 L 13.734375 -1.203125 C 14.054688 -1.203125 14.359375 -1.222656 14.640625 -1.265625 C 14.929688 -1.316406 15.179688 -1.414062 15.390625 -1.5625 C 15.609375 -1.707031 15.78125 -1.914062 15.90625 -2.1875 C 16.03125 -2.457031 16.09375 -2.820312 16.09375 -3.28125 L 16.09375 -10.015625 L 6.734375 -10.015625 L 6.734375 -3.28125 C 6.734375 -2.820312 6.796875 -2.457031 6.921875 -2.1875 C 7.046875 -1.914062 7.210938 -1.707031 7.421875 -1.5625 C 7.640625 -1.414062 7.890625 -1.316406 8.171875 -1.265625 C 8.460938 -1.222656 8.769531 -1.203125 9.09375 -1.203125 L 9.46875 -1.203125 L 9.46875 0 L 1.09375 0 L 1.09375 -1.203125 L 1.46875 -1.203125 C 1.789062 -1.203125 2.09375 -1.222656 2.375 -1.265625 C 2.664062 -1.316406 2.914062 -1.414062 3.125 -1.5625 C 3.34375 -1.707031 3.515625 -1.914062 3.640625 -2.1875 C 3.765625 -2.457031 3.828125 -2.820312 3.828125 -3.28125 L 3.828125 -17.390625 C 3.828125 -17.804688 3.757812 -18.144531 3.625 -18.40625 C 3.5 -18.664062 3.328125 -18.863281 3.109375 -19 C 2.898438 -19.132812 2.648438 -19.222656 2.359375 -19.265625 C 2.078125 -19.316406 1.78125 -19.34375 1.46875 -19.34375 L 1.09375 -19.34375 L 1.09375 -20.546875 L 9.46875 -20.546875 L 9.46875 -19.34375 L 9.09375 -19.34375 C 8.769531 -19.34375 8.460938 -19.316406 8.171875 -19.265625 C 7.890625 -19.222656 7.640625 -19.128906 7.421875 -18.984375 C 7.210938 -18.835938 7.046875 -18.628906 6.921875 -18.359375 C 6.796875 -18.085938 6.734375 -17.722656 6.734375 -17.265625 L 6.734375 -11.453125 L 16.09375 -11.453125 L 16.09375 -17.265625 C 16.09375 -17.722656 16.03125 -18.085938 15.90625 -18.359375 C 15.78125 -18.628906 15.609375 -18.835938 15.390625 -18.984375 C 15.179688 -19.128906 14.929688 -19.222656 14.640625 -19.265625 C 14.359375 -19.316406 14.054688 -19.34375 13.734375 -19.34375 L 13.34375 -19.34375 L 13.34375 -20.546875 L 21.71875 -20.546875 L 21.71875 -19.34375 L 21.359375 -19.34375 C 21.035156 -19.34375 20.726562 -19.316406 20.4375 -19.265625 C 20.15625 -19.222656 19.90625 -19.128906 19.6875 -18.984375 C 19.46875 -18.835938 19.296875 -18.628906 19.171875 -18.359375 C 19.054688 -18.085938 19 -17.722656 19 -17.265625 L 19 -3.140625 C 19 -2.710938 19.0625 -2.367188 19.1875 -2.109375 C 19.3125 -1.859375 19.484375 -1.664062 19.703125 -1.53125 C 19.921875 -1.394531 20.171875 -1.304688 20.453125 -1.265625 C 20.742188 -1.222656 21.046875 -1.203125 21.359375 -1.203125 L 21.71875 -1.203125 L 21.71875 0 Z M 13.34375 0 "/></g></g></g><g fill="#fffcf9" fill-opacity="1"><g transform="translate(242.680951, 234.637209)"><g><path d="M 10.40625 0.28125 C 9.28125 0.28125 8.265625 0.160156 7.359375 -0.078125 C 6.460938 -0.316406 5.703125 -0.695312 5.078125 -1.21875 C 4.453125 -1.738281 3.972656 -2.40625 3.640625 -3.21875 C 3.316406 -4.039062 3.15625 -5.039062 3.15625 -6.21875 L 3.15625 -17.390625 C 3.15625 -17.804688 3.09375 -18.144531 2.96875 -18.40625 C 2.84375 -18.664062 2.671875 -18.863281 2.453125 -19 C 2.242188 -19.132812 1.992188 -19.222656 1.703125 -19.265625 C 1.421875 -19.316406 1.117188 -19.34375 0.796875 -19.34375 L 0.4375 -19.34375 L 0.4375 -20.546875 L 8.8125 -20.546875 L 8.8125 -19.34375 L 8.4375 -19.34375 C 8.113281 -19.34375 7.804688 -19.316406 7.515625 -19.265625 C 7.222656 -19.222656 6.972656 -19.128906 6.765625 -18.984375 C 6.554688 -18.835938 6.390625 -18.628906 6.265625 -18.359375 C 6.140625 -18.085938 6.078125 -17.722656 6.078125 -17.265625 L 6.078125 -6.046875 C 6.078125 -5.210938 6.191406 -4.5 6.421875 -3.90625 C 6.660156 -3.320312 6.992188 -2.847656 7.421875 -2.484375 C 7.847656 -2.117188 8.351562 -1.851562 8.9375 -1.6875 C 9.53125 -1.519531 10.175781 -1.4375 10.875 -1.4375 C 11.707031 -1.4375 12.425781 -1.546875 13.03125 -1.765625 C 13.632812 -1.992188 14.132812 -2.304688 14.53125 -2.703125 C 14.9375 -3.097656 15.234375 -3.570312 15.421875 -4.125 C 15.617188 -4.675781 15.71875 -5.28125 15.71875 -5.9375 L 15.71875 -17.390625 C 15.71875 -17.804688 15.648438 -18.144531 15.515625 -18.40625 C 15.390625 -18.664062 15.21875 -18.863281 15 -19 C 14.789062 -19.132812 14.539062 -19.222656 14.25 -19.265625 C 13.96875 -19.316406 13.664062 -19.34375 13.34375 -19.34375 L 12.984375 -19.34375 L 12.984375 -20.546875 L 20.203125 -20.546875 L 20.203125 -19.34375 L 19.828125 -19.34375 C 19.503906 -19.34375 19.195312 -19.316406 18.90625 -19.265625 C 18.625 -19.222656 18.375 -19.128906 18.15625 -18.984375 C 17.945312 -18.835938 17.78125 -18.628906 17.65625 -18.359375 C 17.53125 -18.085938 17.46875 -17.722656 17.46875 -17.265625 L 17.46875 -5.875 C 17.46875 -4.914062 17.316406 -4.054688 17.015625 -3.296875 C 16.710938 -2.535156 16.257812 -1.890625 15.65625 -1.359375 C 15.0625 -0.828125 14.320312 -0.421875 13.4375 -0.140625 C 12.5625 0.140625 11.550781 0.28125 10.40625 0.28125 Z M 10.40625 0.28125 "/></g></g></g><g fill="#fffcf9" fill-opacity="1"><g transform="translate(263.310135, 234.637209)"><g><path d="M 19.28125 -10.296875 C 19.28125 -8.722656 19.082031 -7.300781 18.6875 -6.03125 C 18.289062 -4.757812 17.703125 -3.675781 16.921875 -2.78125 C 16.148438 -1.894531 15.175781 -1.207031 14 -0.71875 C 12.832031 -0.238281 11.46875 0 9.90625 0 L 1.09375 0 L 1.09375 -1.203125 L 1.46875 -1.203125 C 1.789062 -1.203125 2.09375 -1.222656 2.375 -1.265625 C 2.664062 -1.316406 2.914062 -1.414062 3.125 -1.5625 C 3.34375 -1.707031 3.515625 -1.914062 3.640625 -2.1875 C 3.765625 -2.457031 3.828125 -2.820312 3.828125 -3.28125 L 3.828125 -17.390625 C 3.828125 -17.804688 3.757812 -18.144531 3.625 -18.40625 C 3.5 -18.664062 3.328125 -18.863281 3.109375 -19 C 2.898438 -19.132812 2.648438 -19.222656 2.359375 -19.265625 C 2.078125 -19.316406 1.78125 -19.34375 1.46875 -19.34375 L 1.09375 -19.34375 L 1.09375 -20.546875 L 9.90625 -20.546875 C 11.382812 -20.546875 12.703125 -20.316406 13.859375 -19.859375 C 15.023438 -19.410156 16.007812 -18.75 16.8125 -17.875 C 17.613281 -17 18.222656 -15.925781 18.640625 -14.65625 C 19.066406 -13.382812 19.28125 -11.929688 19.28125 -10.296875 Z M 9.234375 -1.46875 C 10.378906 -1.46875 11.378906 -1.660156 12.234375 -2.046875 C 13.085938 -2.429688 13.800781 -3 14.375 -3.75 C 14.945312 -4.5 15.375 -5.421875 15.65625 -6.515625 C 15.945312 -7.617188 16.09375 -8.878906 16.09375 -10.296875 C 16.09375 -13.160156 15.519531 -15.34375 14.375 -16.84375 C 13.238281 -18.351562 11.535156 -19.109375 9.265625 -19.109375 L 6.734375 -19.109375 L 6.734375 -1.46875 Z M 9.234375 -1.46875 "/></g></g></g><g fill="#fffcf9" fill-opacity="1"><g transform="translate(284.234409, 234.637209)"><g><path d="M 7.109375 0.28125 C 6.171875 0.28125 5.34375 0.179688 4.625 -0.015625 C 3.914062 -0.210938 3.316406 -0.484375 2.828125 -0.828125 C 2.347656 -1.179688 1.984375 -1.609375 1.734375 -2.109375 C 1.492188 -2.609375 1.375 -3.160156 1.375 -3.765625 C 1.375 -4.347656 1.550781 -4.816406 1.90625 -5.171875 C 2.269531 -5.523438 2.785156 -5.703125 3.453125 -5.703125 C 3.484375 -5.109375 3.578125 -4.53125 3.734375 -3.96875 C 3.890625 -3.414062 4.117188 -2.929688 4.421875 -2.515625 C 4.734375 -2.097656 5.128906 -1.757812 5.609375 -1.5 C 6.085938 -1.25 6.660156 -1.125 7.328125 -1.125 C 8.628906 -1.125 9.640625 -1.4375 10.359375 -2.0625 C 11.085938 -2.6875 11.453125 -3.582031 11.453125 -4.75 C 11.453125 -5.269531 11.375 -5.734375 11.21875 -6.140625 C 11.070312 -6.546875 10.828125 -6.914062 10.484375 -7.25 C 10.140625 -7.59375 9.679688 -7.921875 9.109375 -8.234375 C 8.546875 -8.554688 7.84375 -8.890625 7 -9.234375 C 6.101562 -9.597656 5.320312 -9.988281 4.65625 -10.40625 C 4 -10.820312 3.445312 -11.285156 3 -11.796875 C 2.5625 -12.304688 2.234375 -12.875 2.015625 -13.5 C 1.804688 -14.132812 1.703125 -14.84375 1.703125 -15.625 C 1.703125 -16.445312 1.859375 -17.179688 2.171875 -17.828125 C 2.484375 -18.472656 2.921875 -19.019531 3.484375 -19.46875 C 4.046875 -19.914062 4.710938 -20.253906 5.484375 -20.484375 C 6.253906 -20.722656 7.09375 -20.84375 8 -20.84375 C 8.863281 -20.84375 9.625 -20.753906 10.28125 -20.578125 C 10.945312 -20.398438 11.507812 -20.160156 11.96875 -19.859375 C 12.425781 -19.554688 12.773438 -19.207031 13.015625 -18.8125 C 13.253906 -18.425781 13.375 -18.023438 13.375 -17.609375 C 13.375 -16.992188 13.171875 -16.523438 12.765625 -16.203125 C 12.359375 -15.890625 11.804688 -15.734375 11.109375 -15.734375 C 11.109375 -16.191406 11.054688 -16.632812 10.953125 -17.0625 C 10.847656 -17.5 10.664062 -17.890625 10.40625 -18.234375 C 10.15625 -18.578125 9.820312 -18.851562 9.40625 -19.0625 C 9 -19.28125 8.492188 -19.390625 7.890625 -19.390625 C 7.335938 -19.390625 6.84375 -19.3125 6.40625 -19.15625 C 5.96875 -19.007812 5.597656 -18.789062 5.296875 -18.5 C 4.992188 -18.21875 4.765625 -17.875 4.609375 -17.46875 C 4.453125 -17.0625 4.375 -16.613281 4.375 -16.125 C 4.375 -15.550781 4.445312 -15.046875 4.59375 -14.609375 C 4.738281 -14.171875 4.988281 -13.773438 5.34375 -13.421875 C 5.695312 -13.078125 6.160156 -12.742188 6.734375 -12.421875 C 7.304688 -12.109375 8.007812 -11.785156 8.84375 -11.453125 C 9.6875 -11.109375 10.4375 -10.742188 11.09375 -10.359375 C 11.75 -9.972656 12.304688 -9.539062 12.765625 -9.0625 C 13.234375 -8.59375 13.585938 -8.066406 13.828125 -7.484375 C 14.066406 -6.898438 14.1875 -6.238281 14.1875 -5.5 C 14.1875 -4.582031 14.019531 -3.765625 13.6875 -3.046875 C 13.363281 -2.335938 12.890625 -1.734375 12.265625 -1.234375 C 11.648438 -0.734375 10.90625 -0.351562 10.03125 -0.09375 C 9.164062 0.15625 8.191406 0.28125 7.109375 0.28125 Z M 7.109375 0.28125 "/></g></g></g><g fill="#fffcf9" fill-opacity="1"><g transform="translate(299.888981, 234.637209)"><g><path d="M 19.71875 -10.296875 C 19.71875 -8.710938 19.519531 -7.269531 19.125 -5.96875 C 18.726562 -4.664062 18.144531 -3.550781 17.375 -2.625 C 16.613281 -1.695312 15.671875 -0.976562 14.546875 -0.46875 C 13.421875 0.03125 12.132812 0.28125 10.6875 0.28125 C 9.15625 0.28125 7.820312 0.03125 6.6875 -0.46875 C 5.550781 -0.976562 4.609375 -1.695312 3.859375 -2.625 C 3.109375 -3.550781 2.546875 -4.664062 2.171875 -5.96875 C 1.796875 -7.28125 1.609375 -8.734375 1.609375 -10.328125 C 1.609375 -11.921875 1.796875 -13.363281 2.171875 -14.65625 C 2.546875 -15.957031 3.109375 -17.066406 3.859375 -17.984375 C 4.609375 -18.898438 5.554688 -19.609375 6.703125 -20.109375 C 7.847656 -20.617188 9.179688 -20.875 10.703125 -20.875 C 12.160156 -20.875 13.445312 -20.617188 14.5625 -20.109375 C 15.675781 -19.609375 16.613281 -18.894531 17.375 -17.96875 C 18.144531 -17.050781 18.726562 -15.941406 19.125 -14.640625 C 19.519531 -13.347656 19.71875 -11.898438 19.71875 -10.296875 Z M 4.8125 -10.296875 C 4.8125 -8.878906 4.914062 -7.609375 5.125 -6.484375 C 5.332031 -5.367188 5.671875 -4.421875 6.140625 -3.640625 C 6.609375 -2.867188 7.210938 -2.28125 7.953125 -1.875 C 8.703125 -1.46875 9.613281 -1.265625 10.6875 -1.265625 C 11.75 -1.265625 12.648438 -1.46875 13.390625 -1.875 C 14.140625 -2.28125 14.742188 -2.867188 15.203125 -3.640625 C 15.671875 -4.421875 16.007812 -5.367188 16.21875 -6.484375 C 16.425781 -7.609375 16.53125 -8.878906 16.53125 -10.296875 C 16.53125 -11.722656 16.425781 -12.992188 16.21875 -14.109375 C 16.007812 -15.234375 15.671875 -16.175781 15.203125 -16.9375 C 14.742188 -17.707031 14.144531 -18.296875 13.40625 -18.703125 C 12.675781 -19.109375 11.773438 -19.3125 10.703125 -19.3125 C 9.640625 -19.3125 8.734375 -19.109375 7.984375 -18.703125 C 7.234375 -18.296875 6.617188 -17.707031 6.140625 -16.9375 C 5.671875 -16.175781 5.332031 -15.234375 5.125 -14.109375 C 4.914062 -12.992188 4.8125 -11.722656 4.8125 -10.296875 Z M 4.8125 -10.296875 "/></g></g></g><g fill="#fffcf9" fill-opacity="1"><g transform="translate(321.248899, 234.637209)"><g><path d="M 16.375 0 L 5.578125 -16.578125 L 5.578125 -3.28125 C 5.578125 -2.820312 5.640625 -2.457031 5.765625 -2.1875 C 5.890625 -1.914062 6.054688 -1.707031 6.265625 -1.5625 C 6.484375 -1.414062 6.738281 -1.316406 7.03125 -1.265625 C 7.320312 -1.222656 7.625 -1.203125 7.9375 -1.203125 L 8.3125 -1.203125 L 8.3125 0 L 1.09375 0 L 1.09375 -1.203125 L 1.46875 -1.203125 C 1.789062 -1.203125 2.09375 -1.222656 2.375 -1.265625 C 2.664062 -1.316406 2.914062 -1.414062 3.125 -1.5625 C 3.34375 -1.707031 3.515625 -1.914062 3.640625 -2.1875 C 3.765625 -2.457031 3.828125 -2.820312 3.828125 -3.28125 L 3.828125 -17.390625 C 3.828125 -17.804688 3.757812 -18.144531 3.625 -18.40625 C 3.5 -18.664062 3.328125 -18.863281 3.109375 -19 C 2.898438 -19.132812 2.648438 -19.222656 2.359375 -19.265625 C 2.078125 -19.316406 1.78125 -19.34375 1.46875 -19.34375 L 1.09375 -19.34375 L 1.09375 -20.546875 L 6.359375 -20.546875 L 16.671875 -4.640625 L 16.671875 -17.390625 C 16.671875 -17.804688 16.601562 -18.144531 16.46875 -18.40625 C 16.34375 -18.664062 16.171875 -18.863281 15.953125 -19 C 15.742188 -19.132812 15.492188 -19.222656 15.203125 -19.265625 C 14.921875 -19.316406 14.625 -19.34375 14.3125 -19.34375 L 13.921875 -19.34375 L 13.921875 -20.546875 L 21.15625 -20.546875 L 21.15625 -19.34375 L 20.78125 -19.34375 C 20.457031 -19.34375 20.148438 -19.316406 19.859375 -19.265625 C 19.578125 -19.222656 19.328125 -19.128906 19.109375 -18.984375 C 18.898438 -18.835938 18.734375 -18.628906 18.609375 -18.359375 C 18.484375 -18.085938 18.421875 -17.722656 18.421875 -17.265625 L 18.421875 0 Z M 16.375 0 "/></g></g></g><g fill="#edb522" fill-opacity="1"><g transform="translate(123.6976, 259.521048)"><g><path d="M 3.171875 0 L 0.890625 -6.546875 C 0.847656 -6.648438 0.804688 -6.738281 0.765625 -6.8125 C 0.722656 -6.882812 0.671875 -6.941406 0.609375 -6.984375 C 0.546875 -7.023438 0.476562 -7.050781 0.40625 -7.0625 C 0.332031 -7.082031 0.242188 -7.09375 0.140625 -7.09375 L 0 -7.09375 L 0 -7.546875 L 2.90625 -7.546875 L 2.90625 -7.09375 L 2.65625 -7.09375 C 2.445312 -7.09375 2.289062 -7.050781 2.1875 -6.96875 C 2.082031 -6.894531 2.03125 -6.769531 2.03125 -6.59375 C 2.03125 -6.53125 2.035156 -6.46875 2.046875 -6.40625 C 2.066406 -6.34375 2.085938 -6.273438 2.109375 -6.203125 L 3.28125 -2.765625 C 3.382812 -2.453125 3.472656 -2.148438 3.546875 -1.859375 C 3.617188 -1.566406 3.6875 -1.289062 3.75 -1.03125 C 3.800781 -1.289062 3.863281 -1.5625 3.9375 -1.84375 C 4.019531 -2.132812 4.117188 -2.441406 4.234375 -2.765625 L 5.40625 -6.125 C 5.425781 -6.207031 5.445312 -6.289062 5.46875 -6.375 C 5.488281 -6.457031 5.5 -6.523438 5.5 -6.578125 C 5.5 -6.765625 5.4375 -6.894531 5.3125 -6.96875 C 5.195312 -7.050781 5.023438 -7.09375 4.796875 -7.09375 L 4.546875 -7.09375 L 4.546875 -7.546875 L 7.125 -7.546875 L 7.125 -7.09375 L 6.921875 -7.09375 C 6.816406 -7.09375 6.726562 -7.082031 6.65625 -7.0625 C 6.582031 -7.039062 6.515625 -7 6.453125 -6.9375 C 6.398438 -6.882812 6.347656 -6.800781 6.296875 -6.6875 C 6.242188 -6.582031 6.1875 -6.445312 6.125 -6.28125 L 3.9375 0 Z M 3.171875 0 "/></g></g></g><g fill="#edb522" fill-opacity="1"><g transform="translate(132.207254, 259.521048)"><g><path d="M 2.140625 -2.515625 L 1.734375 -1.40625 C 1.703125 -1.332031 1.675781 -1.253906 1.65625 -1.171875 C 1.644531 -1.085938 1.640625 -1.015625 1.640625 -0.953125 C 1.640625 -0.773438 1.695312 -0.644531 1.8125 -0.5625 C 1.925781 -0.476562 2.101562 -0.4375 2.34375 -0.4375 L 2.578125 -0.4375 L 2.578125 0 L 0 0 L 0 -0.4375 L 0.203125 -0.4375 C 0.304688 -0.4375 0.394531 -0.445312 0.46875 -0.46875 C 0.539062 -0.5 0.601562 -0.546875 0.65625 -0.609375 C 0.71875 -0.671875 0.773438 -0.753906 0.828125 -0.859375 C 0.878906 -0.960938 0.9375 -1.097656 1 -1.265625 L 3.34375 -7.546875 L 4.171875 -7.546875 L 6.5625 -1 C 6.601562 -0.894531 6.644531 -0.804688 6.6875 -0.734375 C 6.726562 -0.660156 6.773438 -0.601562 6.828125 -0.5625 C 6.890625 -0.519531 6.957031 -0.488281 7.03125 -0.46875 C 7.113281 -0.445312 7.207031 -0.4375 7.3125 -0.4375 L 7.453125 -0.4375 L 7.453125 0 L 4.546875 0 L 4.546875 -0.4375 L 4.78125 -0.4375 C 5.207031 -0.4375 5.421875 -0.609375 5.421875 -0.953125 C 5.421875 -1.003906 5.410156 -1.0625 5.390625 -1.125 C 5.378906 -1.1875 5.359375 -1.257812 5.328125 -1.34375 L 4.90625 -2.515625 Z M 4.0625 -4.90625 C 3.957031 -5.21875 3.859375 -5.507812 3.765625 -5.78125 C 3.671875 -6.050781 3.59375 -6.316406 3.53125 -6.578125 C 3.507812 -6.441406 3.484375 -6.316406 3.453125 -6.203125 C 3.421875 -6.085938 3.382812 -5.96875 3.34375 -5.84375 C 3.3125 -5.71875 3.269531 -5.585938 3.21875 -5.453125 C 3.164062 -5.316406 3.109375 -5.164062 3.046875 -5 L 2.34375 -3.046875 L 4.71875 -3.046875 Z M 4.0625 -4.90625 "/></g></g></g><g fill="#edb522" fill-opacity="1"><g transform="translate(141.036554, 259.521048)"><g><path d="M 3.828125 0.109375 C 3.410156 0.109375 3.035156 0.0664062 2.703125 -0.015625 C 2.367188 -0.109375 2.085938 -0.25 1.859375 -0.4375 C 1.628906 -0.632812 1.453125 -0.882812 1.328125 -1.1875 C 1.210938 -1.488281 1.15625 -1.851562 1.15625 -2.28125 L 1.15625 -6.375 C 1.15625 -6.53125 1.128906 -6.65625 1.078125 -6.75 C 1.035156 -6.84375 0.972656 -6.914062 0.890625 -6.96875 C 0.816406 -7.019531 0.726562 -7.050781 0.625 -7.0625 C 0.519531 -7.082031 0.410156 -7.09375 0.296875 -7.09375 L 0.15625 -7.09375 L 0.15625 -7.546875 L 3.234375 -7.546875 L 3.234375 -7.09375 L 3.09375 -7.09375 C 2.976562 -7.09375 2.863281 -7.082031 2.75 -7.0625 C 2.644531 -7.050781 2.554688 -7.019531 2.484375 -6.96875 C 2.410156 -6.914062 2.347656 -6.835938 2.296875 -6.734375 C 2.253906 -6.640625 2.234375 -6.507812 2.234375 -6.34375 L 2.234375 -2.21875 C 2.234375 -1.914062 2.273438 -1.65625 2.359375 -1.4375 C 2.441406 -1.21875 2.5625 -1.039062 2.71875 -0.90625 C 2.875 -0.78125 3.0625 -0.6875 3.28125 -0.625 C 3.5 -0.5625 3.734375 -0.53125 3.984375 -0.53125 C 4.296875 -0.53125 4.5625 -0.570312 4.78125 -0.65625 C 5 -0.738281 5.179688 -0.851562 5.328125 -1 C 5.472656 -1.144531 5.582031 -1.316406 5.65625 -1.515625 C 5.726562 -1.710938 5.765625 -1.929688 5.765625 -2.171875 L 5.765625 -6.375 C 5.765625 -6.53125 5.738281 -6.65625 5.6875 -6.75 C 5.644531 -6.84375 5.582031 -6.914062 5.5 -6.96875 C 5.425781 -7.019531 5.335938 -7.050781 5.234375 -7.0625 C 5.128906 -7.082031 5.019531 -7.09375 4.90625 -7.09375 L 4.765625 -7.09375 L 4.765625 -7.546875 L 7.421875 -7.546875 L 7.421875 -7.09375 L 7.28125 -7.09375 C 7.164062 -7.09375 7.050781 -7.082031 6.9375 -7.0625 C 6.832031 -7.050781 6.738281 -7.019531 6.65625 -6.96875 C 6.582031 -6.914062 6.519531 -6.835938 6.46875 -6.734375 C 6.425781 -6.640625 6.40625 -6.507812 6.40625 -6.34375 L 6.40625 -2.15625 C 6.40625 -1.800781 6.347656 -1.484375 6.234375 -1.203125 C 6.128906 -0.929688 5.96875 -0.695312 5.75 -0.5 C 5.53125 -0.300781 5.257812 -0.148438 4.9375 -0.046875 C 4.613281 0.0546875 4.242188 0.109375 3.828125 0.109375 Z M 3.828125 0.109375 "/></g></g></g><g fill="#edb522" fill-opacity="1"><g transform="translate(149.989587, 259.521048)"><g><path d="M 7.078125 -3.78125 C 7.078125 -3.195312 7.003906 -2.671875 6.859375 -2.203125 C 6.710938 -1.742188 6.492188 -1.347656 6.203125 -1.015625 C 5.921875 -0.691406 5.566406 -0.441406 5.140625 -0.265625 C 4.710938 -0.0859375 4.210938 0 3.640625 0 L 0.40625 0 L 0.40625 -0.4375 L 0.53125 -0.4375 C 0.65625 -0.4375 0.769531 -0.445312 0.875 -0.46875 C 0.976562 -0.488281 1.066406 -0.523438 1.140625 -0.578125 C 1.222656 -0.628906 1.285156 -0.703125 1.328125 -0.796875 C 1.378906 -0.898438 1.40625 -1.035156 1.40625 -1.203125 L 1.40625 -6.375 C 1.40625 -6.53125 1.378906 -6.65625 1.328125 -6.75 C 1.285156 -6.84375 1.222656 -6.914062 1.140625 -6.96875 C 1.066406 -7.019531 0.976562 -7.050781 0.875 -7.0625 C 0.769531 -7.082031 0.65625 -7.09375 0.53125 -7.09375 L 0.40625 -7.09375 L 0.40625 -7.546875 L 3.640625 -7.546875 C 4.179688 -7.546875 4.664062 -7.460938 5.09375 -7.296875 C 5.519531 -7.128906 5.878906 -6.882812 6.171875 -6.5625 C 6.460938 -6.238281 6.6875 -5.84375 6.84375 -5.375 C 7 -4.90625 7.078125 -4.375 7.078125 -3.78125 Z M 3.390625 -0.53125 C 3.804688 -0.53125 4.171875 -0.601562 4.484375 -0.75 C 4.804688 -0.894531 5.070312 -1.101562 5.28125 -1.375 C 5.488281 -1.65625 5.644531 -1.992188 5.75 -2.390625 C 5.851562 -2.796875 5.90625 -3.257812 5.90625 -3.78125 C 5.90625 -4.832031 5.695312 -5.632812 5.28125 -6.1875 C 4.863281 -6.738281 4.238281 -7.015625 3.40625 -7.015625 L 2.46875 -7.015625 L 2.46875 -0.53125 Z M 3.390625 -0.53125 "/></g></g></g><g fill="#edb522" fill-opacity="1"><g transform="translate(159.050892, 259.521048)"><g><path d="M 5.859375 -1.296875 C 6.035156 -1.003906 6.207031 -0.785156 6.375 -0.640625 C 6.539062 -0.503906 6.738281 -0.4375 6.96875 -0.4375 L 7 -0.4375 L 7 0 L 6.84375 0 C 6.507812 0 6.238281 -0.0078125 6.03125 -0.03125 C 5.820312 -0.0625 5.640625 -0.109375 5.484375 -0.171875 C 5.335938 -0.242188 5.210938 -0.34375 5.109375 -0.46875 C 5.003906 -0.59375 4.894531 -0.753906 4.78125 -0.953125 L 3.34375 -3.328125 L 2.46875 -3.328125 L 2.46875 -1.15625 C 2.46875 -1 2.488281 -0.875 2.53125 -0.78125 C 2.582031 -0.6875 2.644531 -0.613281 2.71875 -0.5625 C 2.800781 -0.507812 2.894531 -0.472656 3 -0.453125 C 3.101562 -0.441406 3.21875 -0.4375 3.34375 -0.4375 L 3.46875 -0.4375 L 3.46875 0 L 0.40625 0 L 0.40625 -0.4375 L 0.53125 -0.4375 C 0.65625 -0.4375 0.769531 -0.441406 0.875 -0.453125 C 0.976562 -0.472656 1.066406 -0.507812 1.140625 -0.5625 C 1.222656 -0.613281 1.285156 -0.6875 1.328125 -0.78125 C 1.378906 -0.875 1.40625 -1 1.40625 -1.15625 L 1.40625 -6.375 C 1.40625 -6.53125 1.378906 -6.65625 1.328125 -6.75 C 1.285156 -6.84375 1.222656 -6.914062 1.140625 -6.96875 C 1.066406 -7.019531 0.976562 -7.050781 0.875 -7.0625 C 0.769531 -7.082031 0.65625 -7.09375 0.53125 -7.09375 L 0.40625 -7.09375 L 0.40625 -7.546875 L 3.25 -7.546875 C 4.15625 -7.546875 4.832031 -7.375 5.28125 -7.03125 C 5.726562 -6.695312 5.953125 -6.1875 5.953125 -5.5 C 5.953125 -5.21875 5.90625 -4.972656 5.8125 -4.765625 C 5.726562 -4.554688 5.609375 -4.375 5.453125 -4.21875 C 5.304688 -4.0625 5.140625 -3.929688 4.953125 -3.828125 C 4.773438 -3.722656 4.59375 -3.640625 4.40625 -3.578125 Z M 2.46875 -3.828125 L 3.21875 -3.828125 C 3.519531 -3.828125 3.773438 -3.859375 3.984375 -3.921875 C 4.191406 -3.992188 4.359375 -4.097656 4.484375 -4.234375 C 4.609375 -4.367188 4.695312 -4.539062 4.75 -4.75 C 4.800781 -4.957031 4.828125 -5.195312 4.828125 -5.46875 C 4.828125 -5.75 4.796875 -5.988281 4.734375 -6.1875 C 4.679688 -6.382812 4.585938 -6.546875 4.453125 -6.671875 C 4.328125 -6.796875 4.160156 -6.882812 3.953125 -6.9375 C 3.742188 -7 3.488281 -7.03125 3.1875 -7.03125 L 2.46875 -7.03125 Z M 2.46875 -3.828125 "/></g></g></g><g fill="#edb522" fill-opacity="1"><g transform="translate(167.359485, 259.521048)"><g><path d="M 2.46875 -0.53125 L 4.5 -0.53125 C 4.675781 -0.53125 4.820312 -0.550781 4.9375 -0.59375 C 5.050781 -0.644531 5.148438 -0.707031 5.234375 -0.78125 C 5.316406 -0.863281 5.378906 -0.957031 5.421875 -1.0625 C 5.460938 -1.164062 5.492188 -1.273438 5.515625 -1.390625 L 5.578125 -1.84375 L 6.140625 -1.84375 L 6.0625 0 L 0.40625 0 L 0.40625 -0.4375 L 0.53125 -0.4375 C 0.65625 -0.4375 0.769531 -0.441406 0.875 -0.453125 C 0.976562 -0.472656 1.066406 -0.507812 1.140625 -0.5625 C 1.222656 -0.613281 1.285156 -0.6875 1.328125 -0.78125 C 1.378906 -0.875 1.40625 -1 1.40625 -1.15625 L 1.40625 -6.34375 C 1.40625 -6.507812 1.378906 -6.640625 1.328125 -6.734375 C 1.285156 -6.835938 1.222656 -6.914062 1.140625 -6.96875 C 1.066406 -7.019531 0.976562 -7.050781 0.875 -7.0625 C 0.769531 -7.082031 0.65625 -7.09375 0.53125 -7.09375 L 0.40625 -7.09375 L 0.40625 -7.546875 L 5.71875 -7.546875 L 5.78125 -5.6875 L 5.234375 -5.6875 L 5.171875 -6.140625 C 5.160156 -6.265625 5.132812 -6.378906 5.09375 -6.484375 C 5.050781 -6.585938 4.992188 -6.675781 4.921875 -6.75 C 4.847656 -6.832031 4.753906 -6.894531 4.640625 -6.9375 C 4.535156 -6.988281 4.40625 -7.015625 4.25 -7.015625 L 2.46875 -7.015625 L 2.46875 -4.203125 L 5.015625 -4.203125 L 5.015625 -3.6875 L 2.46875 -3.6875 Z M 2.46875 -0.53125 "/></g></g></g><g fill="#edb522" fill-opacity="1"><g transform="translate(175.32265, 259.521048)"><g><path d="M 3.828125 0.109375 C 3.410156 0.109375 3.035156 0.0664062 2.703125 -0.015625 C 2.367188 -0.109375 2.085938 -0.25 1.859375 -0.4375 C 1.628906 -0.632812 1.453125 -0.882812 1.328125 -1.1875 C 1.210938 -1.488281 1.15625 -1.851562 1.15625 -2.28125 L 1.15625 -6.375 C 1.15625 -6.53125 1.128906 -6.65625 1.078125 -6.75 C 1.035156 -6.84375 0.972656 -6.914062 0.890625 -6.96875 C 0.816406 -7.019531 0.726562 -7.050781 0.625 -7.0625 C 0.519531 -7.082031 0.410156 -7.09375 0.296875 -7.09375 L 0.15625 -7.09375 L 0.15625 -7.546875 L 3.234375 -7.546875 L 3.234375 -7.09375 L 3.09375 -7.09375 C 2.976562 -7.09375 2.863281 -7.082031 2.75 -7.0625 C 2.644531 -7.050781 2.554688 -7.019531 2.484375 -6.96875 C 2.410156 -6.914062 2.347656 -6.835938 2.296875 -6.734375 C 2.253906 -6.640625 2.234375 -6.507812 2.234375 -6.34375 L 2.234375 -2.21875 C 2.234375 -1.914062 2.273438 -1.65625 2.359375 -1.4375 C 2.441406 -1.21875 2.5625 -1.039062 2.71875 -0.90625 C 2.875 -0.78125 3.0625 -0.6875 3.28125 -0.625 C 3.5 -0.5625 3.734375 -0.53125 3.984375 -0.53125 C 4.296875 -0.53125 4.5625 -0.570312 4.78125 -0.65625 C 5 -0.738281 5.179688 -0.851562 5.328125 -1 C 5.472656 -1.144531 5.582031 -1.316406 5.65625 -1.515625 C 5.726562 -1.710938 5.765625 -1.929688 5.765625 -2.171875 L 5.765625 -6.375 C 5.765625 -6.53125 5.738281 -6.65625 5.6875 -6.75 C 5.644531 -6.84375 5.582031 -6.914062 5.5 -6.96875 C 5.425781 -7.019531 5.335938 -7.050781 5.234375 -7.0625 C 5.128906 -7.082031 5.019531 -7.09375 4.90625 -7.09375 L 4.765625 -7.09375 L 4.765625 -7.546875 L 7.421875 -7.546875 L 7.421875 -7.09375 L 7.28125 -7.09375 C 7.164062 -7.09375 7.050781 -7.082031 6.9375 -7.0625 C 6.832031 -7.050781 6.738281 -7.019531 6.65625 -6.96875 C 6.582031 -6.914062 6.519531 -6.835938 6.46875 -6.734375 C 6.425781 -6.640625 6.40625 -6.507812 6.40625 -6.34375 L 6.40625 -2.15625 C 6.40625 -1.800781 6.347656 -1.484375 6.234375 -1.203125 C 6.128906 -0.929688 5.96875 -0.695312 5.75 -0.5 C 5.53125 -0.300781 5.257812 -0.148438 4.9375 -0.046875 C 4.613281 0.0546875 4.242188 0.109375 3.828125 0.109375 Z M 3.828125 0.109375 "/></g></g></g><g fill="#edb522" fill-opacity="1"><g transform="translate(184.275683, 259.521048)"><g><path d="M 0.40625 0 L 0.40625 -0.4375 L 0.53125 -0.4375 C 0.65625 -0.4375 0.769531 -0.445312 0.875 -0.46875 C 0.976562 -0.488281 1.066406 -0.523438 1.140625 -0.578125 C 1.222656 -0.628906 1.285156 -0.703125 1.328125 -0.796875 C 1.378906 -0.898438 1.40625 -1.035156 1.40625 -1.203125 L 1.40625 -6.34375 C 1.40625 -6.507812 1.378906 -6.640625 1.328125 -6.734375 C 1.285156 -6.835938 1.222656 -6.914062 1.140625 -6.96875 C 1.066406 -7.019531 0.976562 -7.050781 0.875 -7.0625 C 0.769531 -7.082031 0.65625 -7.09375 0.53125 -7.09375 L 0.40625 -7.09375 L 0.40625 -7.546875 L 3.46875 -7.546875 L 3.46875 -7.09375 L 3.34375 -7.09375 C 3.21875 -7.09375 3.101562 -7.082031 3 -7.0625 C 2.894531 -7.050781 2.800781 -7.019531 2.71875 -6.96875 C 2.644531 -6.914062 2.582031 -6.835938 2.53125 -6.734375 C 2.488281 -6.640625 2.46875 -6.507812 2.46875 -6.34375 L 2.46875 -1.203125 C 2.46875 -1.035156 2.488281 -0.898438 2.53125 -0.796875 C 2.582031 -0.703125 2.644531 -0.628906 2.71875 -0.578125 C 2.800781 -0.523438 2.894531 -0.488281 3 -0.46875 C 3.101562 -0.445312 3.21875 -0.4375 3.34375 -0.4375 L 3.46875 -0.4375 L 3.46875 0 Z M 0.40625 0 "/></g></g></g><g fill="#edb522" fill-opacity="1"><g transform="translate(189.537332, 259.521048)"><g><path d="M 0.40625 0 L 0.40625 -0.4375 L 0.53125 -0.4375 C 0.65625 -0.4375 0.769531 -0.445312 0.875 -0.46875 C 0.976562 -0.488281 1.066406 -0.523438 1.140625 -0.578125 C 1.222656 -0.628906 1.285156 -0.703125 1.328125 -0.796875 C 1.378906 -0.898438 1.40625 -1.035156 1.40625 -1.203125 L 1.40625 -6.34375 C 1.40625 -6.507812 1.378906 -6.640625 1.328125 -6.734375 C 1.285156 -6.835938 1.222656 -6.914062 1.140625 -6.96875 C 1.066406 -7.019531 0.976562 -7.050781 0.875 -7.0625 C 0.769531 -7.082031 0.65625 -7.09375 0.53125 -7.09375 L 0.40625 -7.09375 L 0.40625 -7.546875 L 3.46875 -7.546875 L 3.46875 -7.09375 L 3.34375 -7.09375 C 3.21875 -7.09375 3.101562 -7.082031 3 -7.0625 C 2.894531 -7.050781 2.800781 -7.019531 2.71875 -6.96875 C 2.644531 -6.914062 2.582031 -6.84375 2.53125 -6.75 C 2.488281 -6.65625 2.46875 -6.53125 2.46875 -6.375 L 2.46875 -0.53125 L 4.546875 -0.53125 C 4.710938 -0.53125 4.847656 -0.554688 4.953125 -0.609375 C 5.066406 -0.671875 5.160156 -0.742188 5.234375 -0.828125 C 5.304688 -0.921875 5.363281 -1.023438 5.40625 -1.140625 C 5.445312 -1.253906 5.472656 -1.367188 5.484375 -1.484375 L 5.578125 -2.265625 L 6.140625 -2.265625 L 6.0625 0 Z M 0.40625 0 "/></g></g></g><g fill="#edb522" fill-opacity="1"><g transform="translate(197.500497, 259.521048)"><g><path d="M 0.265625 -2.484375 L 0.265625 -3.28125 L 3.015625 -3.28125 L 3.015625 -2.484375 Z M 0.265625 -2.484375 "/></g></g></g><g fill="#edb522" fill-opacity="1"><g transform="translate(202.158952, 259.521048)"><g><path d="M 7.078125 -3.78125 C 7.078125 -3.195312 7.003906 -2.671875 6.859375 -2.203125 C 6.710938 -1.742188 6.492188 -1.347656 6.203125 -1.015625 C 5.921875 -0.691406 5.566406 -0.441406 5.140625 -0.265625 C 4.710938 -0.0859375 4.210938 0 3.640625 0 L 0.40625 0 L 0.40625 -0.4375 L 0.53125 -0.4375 C 0.65625 -0.4375 0.769531 -0.445312 0.875 -0.46875 C 0.976562 -0.488281 1.066406 -0.523438 1.140625 -0.578125 C 1.222656 -0.628906 1.285156 -0.703125 1.328125 -0.796875 C 1.378906 -0.898438 1.40625 -1.035156 1.40625 -1.203125 L 1.40625 -6.375 C 1.40625 -6.53125 1.378906 -6.65625 1.328125 -6.75 C 1.285156 -6.84375 1.222656 -6.914062 1.140625 -6.96875 C 1.066406 -7.019531 0.976562 -7.050781 0.875 -7.0625 C 0.769531 -7.082031 0.65625 -7.09375 0.53125 -7.09375 L 0.40625 -7.09375 L 0.40625 -7.546875 L 3.640625 -7.546875 C 4.179688 -7.546875 4.664062 -7.460938 5.09375 -7.296875 C 5.519531 -7.128906 5.878906 -6.882812 6.171875 -6.5625 C 6.460938 -6.238281 6.6875 -5.84375 6.84375 -5.375 C 7 -4.90625 7.078125 -4.375 7.078125 -3.78125 Z M 3.390625 -0.53125 C 3.804688 -0.53125 4.171875 -0.601562 4.484375 -0.75 C 4.804688 -0.894531 5.070312 -1.101562 5.28125 -1.375 C 5.488281 -1.65625 5.644531 -1.992188 5.75 -2.390625 C 5.851562 -2.796875 5.90625 -3.257812 5.90625 -3.78125 C 5.90625 -4.832031 5.695312 -5.632812 5.28125 -6.1875 C 4.863281 -6.738281 4.238281 -7.015625 3.40625 -7.015625 L 2.46875 -7.015625 L 2.46875 -0.53125 Z M 3.390625 -0.53125 "/></g></g></g><g fill="#edb522" fill-opacity="1"><g transform="translate(211.220257, 259.521048)"><g><path d="M 7.234375 -3.78125 C 7.234375 -3.195312 7.160156 -2.664062 7.015625 -2.1875 C 6.867188 -1.707031 6.65625 -1.296875 6.375 -0.953125 C 6.09375 -0.617188 5.742188 -0.359375 5.328125 -0.171875 C 4.921875 0.015625 4.453125 0.109375 3.921875 0.109375 C 3.359375 0.109375 2.867188 0.015625 2.453125 -0.171875 C 2.035156 -0.359375 1.6875 -0.617188 1.40625 -0.953125 C 1.132812 -1.296875 0.929688 -1.707031 0.796875 -2.1875 C 0.660156 -2.664062 0.59375 -3.203125 0.59375 -3.796875 C 0.59375 -4.378906 0.660156 -4.90625 0.796875 -5.375 C 0.929688 -5.851562 1.132812 -6.257812 1.40625 -6.59375 C 1.6875 -6.9375 2.035156 -7.195312 2.453125 -7.375 C 2.878906 -7.5625 3.375 -7.65625 3.9375 -7.65625 C 4.46875 -7.65625 4.9375 -7.5625 5.34375 -7.375 C 5.75 -7.195312 6.09375 -6.9375 6.375 -6.59375 C 6.65625 -6.257812 6.867188 -5.851562 7.015625 -5.375 C 7.160156 -4.894531 7.234375 -4.363281 7.234375 -3.78125 Z M 1.765625 -3.78125 C 1.765625 -3.257812 1.800781 -2.789062 1.875 -2.375 C 1.957031 -1.96875 2.082031 -1.617188 2.25 -1.328125 C 2.425781 -1.046875 2.648438 -0.832031 2.921875 -0.6875 C 3.191406 -0.539062 3.523438 -0.46875 3.921875 -0.46875 C 4.304688 -0.46875 4.632812 -0.539062 4.90625 -0.6875 C 5.1875 -0.832031 5.410156 -1.046875 5.578125 -1.328125 C 5.753906 -1.617188 5.878906 -1.96875 5.953125 -2.375 C 6.023438 -2.789062 6.0625 -3.257812 6.0625 -3.78125 C 6.0625 -4.300781 6.023438 -4.765625 5.953125 -5.171875 C 5.878906 -5.585938 5.753906 -5.9375 5.578125 -6.21875 C 5.410156 -6.5 5.191406 -6.710938 4.921875 -6.859375 C 4.648438 -7.015625 4.320312 -7.09375 3.9375 -7.09375 C 3.539062 -7.09375 3.203125 -7.015625 2.921875 -6.859375 C 2.648438 -6.710938 2.425781 -6.5 2.25 -6.21875 C 2.082031 -5.9375 1.957031 -5.585938 1.875 -5.171875 C 1.800781 -4.765625 1.765625 -4.300781 1.765625 -3.78125 Z M 1.765625 -3.78125 "/></g></g></g><g fill="#edb522" fill-opacity="1"><g transform="translate(220.441379, 259.521048)"><g><path d="M 5.859375 -1.296875 C 6.035156 -1.003906 6.207031 -0.785156 6.375 -0.640625 C 6.539062 -0.503906 6.738281 -0.4375 6.96875 -0.4375 L 7 -0.4375 L 7 0 L 6.84375 0 C 6.507812 0 6.238281 -0.0078125 6.03125 -0.03125 C 5.820312 -0.0625 5.640625 -0.109375 5.484375 -0.171875 C 5.335938 -0.242188 5.210938 -0.34375 5.109375 -0.46875 C 5.003906 -0.59375 4.894531 -0.753906 4.78125 -0.953125 L 3.34375 -3.328125 L 2.46875 -3.328125 L 2.46875 -1.15625 C 2.46875 -1 2.488281 -0.875 2.53125 -0.78125 C 2.582031 -0.6875 2.644531 -0.613281 2.71875 -0.5625 C 2.800781 -0.507812 2.894531 -0.472656 3 -0.453125 C 3.101562 -0.441406 3.21875 -0.4375 3.34375 -0.4375 L 3.46875 -0.4375 L 3.46875 0 L 0.40625 0 L 0.40625 -0.4375 L 0.53125 -0.4375 C 0.65625 -0.4375 0.769531 -0.441406 0.875 -0.453125 C 0.976562 -0.472656 1.066406 -0.507812 1.140625 -0.5625 C 1.222656 -0.613281 1.285156 -0.6875 1.328125 -0.78125 C 1.378906 -0.875 1.40625 -1 1.40625 -1.15625 L 1.40625 -6.375 C 1.40625 -6.53125 1.378906 -6.65625 1.328125 -6.75 C 1.285156 -6.84375 1.222656 -6.914062 1.140625 -6.96875 C 1.066406 -7.019531 0.976562 -7.050781 0.875 -7.0625 C 0.769531 -7.082031 0.65625 -7.09375 0.53125 -7.09375 L 0.40625 -7.09375 L 0.40625 -7.546875 L 3.25 -7.546875 C 4.15625 -7.546875 4.832031 -7.375 5.28125 -7.03125 C 5.726562 -6.695312 5.953125 -6.1875 5.953125 -5.5 C 5.953125 -5.21875 5.90625 -4.972656 5.8125 -4.765625 C 5.726562 -4.554688 5.609375 -4.375 5.453125 -4.21875 C 5.304688 -4.0625 5.140625 -3.929688 4.953125 -3.828125 C 4.773438 -3.722656 4.59375 -3.640625 4.40625 -3.578125 Z M 2.46875 -3.828125 L 3.21875 -3.828125 C 3.519531 -3.828125 3.773438 -3.859375 3.984375 -3.921875 C 4.191406 -3.992188 4.359375 -4.097656 4.484375 -4.234375 C 4.609375 -4.367188 4.695312 -4.539062 4.75 -4.75 C 4.800781 -4.957031 4.828125 -5.195312 4.828125 -5.46875 C 4.828125 -5.75 4.796875 -5.988281 4.734375 -6.1875 C 4.679688 -6.382812 4.585938 -6.546875 4.453125 -6.671875 C 4.328125 -6.796875 4.160156 -6.882812 3.953125 -6.9375 C 3.742188 -7 3.488281 -7.03125 3.1875 -7.03125 L 2.46875 -7.03125 Z M 2.46875 -3.828125 "/></g></g></g><g fill="#edb522" fill-opacity="1"><g transform="translate(228.749972, 259.521048)"><g><path d="M 0.40625 0 L 0.40625 -0.4375 L 0.53125 -0.4375 C 0.65625 -0.4375 0.769531 -0.445312 0.875 -0.46875 C 0.976562 -0.488281 1.066406 -0.523438 1.140625 -0.578125 C 1.222656 -0.628906 1.285156 -0.703125 1.328125 -0.796875 C 1.378906 -0.898438 1.40625 -1.035156 1.40625 -1.203125 L 1.40625 -6.34375 C 1.40625 -6.507812 1.378906 -6.640625 1.328125 -6.734375 C 1.285156 -6.835938 1.222656 -6.914062 1.140625 -6.96875 C 1.066406 -7.019531 0.976562 -7.050781 0.875 -7.0625 C 0.769531 -7.082031 0.65625 -7.09375 0.53125 -7.09375 L 0.40625 -7.09375 L 0.40625 -7.546875 L 3.46875 -7.546875 L 3.46875 -7.09375 L 3.34375 -7.09375 C 3.21875 -7.09375 3.101562 -7.082031 3 -7.0625 C 2.894531 -7.050781 2.800781 -7.019531 2.71875 -6.96875 C 2.644531 -6.914062 2.582031 -6.835938 2.53125 -6.734375 C 2.488281 -6.640625 2.46875 -6.507812 2.46875 -6.34375 L 2.46875 -1.203125 C 2.46875 -1.035156 2.488281 -0.898438 2.53125 -0.796875 C 2.582031 -0.703125 2.644531 -0.628906 2.71875 -0.578125 C 2.800781 -0.523438 2.894531 -0.488281 3 -0.46875 C 3.101562 -0.445312 3.21875 -0.4375 3.34375 -0.4375 L 3.46875 -0.4375 L 3.46875 0 Z M 0.40625 0 "/></g></g></g><g fill="#edb522" fill-opacity="1"><g transform="translate(234.011622, 259.521048)"><g><path d="M 7.234375 -3.78125 C 7.234375 -3.195312 7.160156 -2.664062 7.015625 -2.1875 C 6.867188 -1.707031 6.65625 -1.296875 6.375 -0.953125 C 6.09375 -0.617188 5.742188 -0.359375 5.328125 -0.171875 C 4.921875 0.015625 4.453125 0.109375 3.921875 0.109375 C 3.359375 0.109375 2.867188 0.015625 2.453125 -0.171875 C 2.035156 -0.359375 1.6875 -0.617188 1.40625 -0.953125 C 1.132812 -1.296875 0.929688 -1.707031 0.796875 -2.1875 C 0.660156 -2.664062 0.59375 -3.203125 0.59375 -3.796875 C 0.59375 -4.378906 0.660156 -4.90625 0.796875 -5.375 C 0.929688 -5.851562 1.132812 -6.257812 1.40625 -6.59375 C 1.6875 -6.9375 2.035156 -7.195312 2.453125 -7.375 C 2.878906 -7.5625 3.375 -7.65625 3.9375 -7.65625 C 4.46875 -7.65625 4.9375 -7.5625 5.34375 -7.375 C 5.75 -7.195312 6.09375 -6.9375 6.375 -6.59375 C 6.65625 -6.257812 6.867188 -5.851562 7.015625 -5.375 C 7.160156 -4.894531 7.234375 -4.363281 7.234375 -3.78125 Z M 1.765625 -3.78125 C 1.765625 -3.257812 1.800781 -2.789062 1.875 -2.375 C 1.957031 -1.96875 2.082031 -1.617188 2.25 -1.328125 C 2.425781 -1.046875 2.648438 -0.832031 2.921875 -0.6875 C 3.191406 -0.539062 3.523438 -0.46875 3.921875 -0.46875 C 4.304688 -0.46875 4.632812 -0.539062 4.90625 -0.6875 C 5.1875 -0.832031 5.410156 -1.046875 5.578125 -1.328125 C 5.753906 -1.617188 5.878906 -1.96875 5.953125 -2.375 C 6.023438 -2.789062 6.0625 -3.257812 6.0625 -3.78125 C 6.0625 -4.300781 6.023438 -4.765625 5.953125 -5.171875 C 5.878906 -5.585938 5.753906 -5.9375 5.578125 -6.21875 C 5.410156 -6.5 5.191406 -6.710938 4.921875 -6.859375 C 4.648438 -7.015625 4.320312 -7.09375 3.9375 -7.09375 C 3.539062 -7.09375 3.203125 -7.015625 2.921875 -6.859375 C 2.648438 -6.710938 2.425781 -6.5 2.25 -6.21875 C 2.082031 -5.9375 1.957031 -5.585938 1.875 -5.171875 C 1.800781 -4.765625 1.765625 -4.300781 1.765625 -3.78125 Z M 1.765625 -3.78125 "/></g></g></g><g fill="#edb522" fill-opacity="1"><g transform="translate(243.232744, 259.521048)"><g><path d="M 6.015625 0 L 2.046875 -6.078125 L 2.046875 -1.203125 C 2.046875 -1.035156 2.066406 -0.898438 2.109375 -0.796875 C 2.160156 -0.703125 2.222656 -0.628906 2.296875 -0.578125 C 2.378906 -0.523438 2.472656 -0.488281 2.578125 -0.46875 C 2.679688 -0.445312 2.789062 -0.4375 2.90625 -0.4375 L 3.046875 -0.4375 L 3.046875 0 L 0.40625 0 L 0.40625 -0.4375 L 0.53125 -0.4375 C 0.65625 -0.4375 0.769531 -0.445312 0.875 -0.46875 C 0.976562 -0.488281 1.066406 -0.523438 1.140625 -0.578125 C 1.222656 -0.628906 1.285156 -0.703125 1.328125 -0.796875 C 1.378906 -0.898438 1.40625 -1.035156 1.40625 -1.203125 L 1.40625 -6.375 C 1.40625 -6.53125 1.378906 -6.65625 1.328125 -6.75 C 1.285156 -6.84375 1.222656 -6.914062 1.140625 -6.96875 C 1.066406 -7.019531 0.976562 -7.050781 0.875 -7.0625 C 0.769531 -7.082031 0.65625 -7.09375 0.53125 -7.09375 L 0.40625 -7.09375 L 0.40625 -7.546875 L 2.34375 -7.546875 L 6.109375 -1.703125 L 6.109375 -6.375 C 6.109375 -6.53125 6.085938 -6.65625 6.046875 -6.75 C 6.003906 -6.84375 5.941406 -6.914062 5.859375 -6.96875 C 5.773438 -7.019531 5.679688 -7.050781 5.578125 -7.0625 C 5.472656 -7.082031 5.363281 -7.09375 5.25 -7.09375 L 5.109375 -7.09375 L 5.109375 -7.546875 L 7.765625 -7.546875 L 7.765625 -7.09375 L 7.625 -7.09375 C 7.507812 -7.09375 7.394531 -7.082031 7.28125 -7.0625 C 7.175781 -7.050781 7.082031 -7.019531 7 -6.96875 C 6.925781 -6.914062 6.867188 -6.835938 6.828125 -6.734375 C 6.785156 -6.640625 6.765625 -6.507812 6.765625 -6.34375 L 6.765625 0 Z M 6.015625 0 "/></g></g></g></svg>