<svg xmlns="http://www.w3.org/2000/svg" xmlns:xlink="http://www.w3.org/1999/xlink" width="1158" zoomAndPan="magnify" viewBox="0 0 868.5 126.749998" height="169" preserveAspectRatio="xMidYMid meet" version="1.0"><defs><g/></defs><g fill="#ffbd59" fill-opacity="1"><g transform="translate(76.057986, 84.041318)"><g><path d="M 21.203125 0.609375 L 19.984375 0.25 L 16.5 -0.359375 L 15.46875 -0.671875 L 11.25 -3.125 L 9.234375 -4.515625 L 6.78125 -7.09375 L 5.375 -9.171875 L 4.28125 -11.25 L 2.5625 -17 L 2.265625 -21.265625 L 2.328125 -23.234375 L 3.421875 -29.28125 L 5.6875 -33.859375 L 6.359375 -34.78125 L 7.28125 -35.703125 L 8.0625 -36.671875 L 10.765625 -39.0625 L 14.125 -41.140625 L 18.828125 -42.84375 L 19.984375 -42.90625 L 21.03125 -43.28125 L 22.25 -43.34375 L 27.9375 -43.09375 L 30.8125 -42.296875 L 32.09375 -42.046875 L 36.375 -39.796875 L 37.28125 -39.0625 L 38.265625 -38.140625 L 39.609375 -37.046875 L 42.046875 -33.5 L 42.609375 -32.390625 L 43.453125 -29.890625 L 43.09375 -28.84375 L 41.5625 -28.171875 L 38.625 -28.359375 L 36.796875 -28.125 L 34.90625 -28.171875 L 33.4375 -28.609375 L 32.15625 -29.640625 L 31.359375 -30.6875 L 30.625 -31.484375 L 29.46875 -32.28125 L 28.296875 -32.765625 L 26.046875 -33.375 L 22.3125 -33.25 L 21.265625 -32.765625 L 20.109375 -32.640625 L 19.078125 -32.09375 L 16.9375 -30.5625 L 15.03125 -27.6875 L 14.0625 -25.484375 L 13.625 -23.109375 L 13.6875 -19.5625 L 14 -17.609375 L 14.484375 -15.828125 L 15.640625 -13.625 L 16.328125 -12.78125 L 18.15625 -11.0625 L 21.453125 -9.71875 L 24.578125 -9.359375 L 26.15625 -9.40625 L 28.546875 -9.96875 L 30.5625 -10.765625 L 31.421875 -11.4375 L 32.328125 -12.46875 L 32.953125 -13.515625 L 32.765625 -14.546875 L 31.84375 -14.96875 L 30.75 -15.15625 L 27.6875 -14.921875 L 25.921875 -15.03125 L 24.8125 -15.703125 L 24.265625 -16.6875 L 24.265625 -22.5 L 24.8125 -23.65625 L 26.046875 -24.265625 L 28.359375 -24.453125 L 32.03125 -24.203125 L 40.28125 -24.390625 L 41.5625 -24.203125 L 42.84375 -24.140625 L 44.015625 -23.53125 L 44.625 -22.5 L 44.75 -20.171875 L 44.625 -19.015625 L 44.625 -17.78125 L 44.375 -16.6875 L 44.3125 -15.640625 L 43.828125 -13.328125 L 42.609375 -9.71875 L 41.875 -8.859375 L 41.328125 -7.765625 L 40.703125 -6.71875 L 39.96875 -5.875 L 39.0625 -5.140625 L 38.140625 -4.15625 L 36.25 -2.6875 L 31.90625 -0.484375 L 27.328125 0.609375 Z M 21.203125 0.609375 "/></g></g></g><g fill="#ffbd59" fill-opacity="1"><g transform="translate(122.877133, 84.041318)"><g><path d="M 4.578125 -1.765625 L 4.46875 -3.0625 L 4.703125 -4.21875 L 4.578125 -5.4375 L 4.640625 -12.890625 L 4.515625 -14 L 4.46875 -16.4375 L 4.640625 -17.671875 L 4.46875 -20.109375 L 4.640625 -21.265625 L 4.46875 -23.90625 L 4.640625 -25.0625 L 4.515625 -26.28125 L 4.703125 -27.390625 L 4.515625 -28.671875 L 4.640625 -29.890625 L 4.578125 -31.046875 L 4.765625 -32.390625 L 4.640625 -33.5625 L 4.46875 -34.78125 L 4.640625 -36.0625 L 4.765625 -37.21875 L 4.40625 -40.40625 L 5.203125 -42.046875 L 6.96875 -42.71875 L 13.328125 -42.84375 L 14.921875 -42.109375 L 15.53125 -40.28125 L 15.640625 -37.28125 L 15.53125 -35.9375 L 15.703125 -26.40625 L 15.53125 -25.125 L 15.703125 -23.78125 L 15.53125 -22.0625 L 15.59375 -19.015625 L 15.46875 -17.71875 L 15.59375 -16.5 L 15.53125 -15.15625 L 15.703125 -14 L 15.640625 -11.734375 L 16.015625 -10.390625 L 17.296875 -9.84375 L 28.0625 -9.71875 L 29.40625 -9.90625 L 30.375 -9.296875 L 31.171875 -7.953125 L 30.984375 -6.78125 L 31.171875 -5.4375 L 31.046875 -4.34375 L 30.984375 -3.125 L 31.109375 -1.765625 L 30.4375 -0.671875 L 28.734375 -0.0625 L 7.09375 0.0625 L 5.140625 -0.671875 Z M 4.578125 -1.765625 "/></g></g></g><g fill="#ffbd59" fill-opacity="1"><g transform="translate(155.760557, 84.041318)"><g><path d="M 22.859375 0.734375 L 21.578125 0.609375 L 19.375 0.125 L 18.03125 0 L 16.265625 -0.609375 L 11.484375 -3.0625 L 9.46875 -4.640625 L 8.796875 -5.4375 L 7.890625 -6.296875 L 7.09375 -7.28125 L 6.359375 -8 L 3.546875 -13.5625 L 3 -15.890625 L 2.875 -17.046875 L 2.5625 -18.15625 L 2.390625 -19.4375 L 2.5625 -24.390625 L 3.609375 -29.09375 L 4.515625 -31.421875 L 6.421875 -34.65625 L 9.40625 -38.140625 L 11.484375 -39.671875 L 12.59375 -40.21875 L 13.515625 -40.890625 L 18.09375 -42.609375 L 24.578125 -43.515625 L 26.21875 -43.453125 L 29.765625 -42.84375 L 34.46875 -41.375 L 35.390625 -40.703125 L 37.21875 -39.921875 L 38.625 -38.9375 L 40.40625 -37.40625 L 42.109375 -35.515625 L 43.453125 -33.6875 L 44.625 -31.421875 L 46.15625 -26.828125 L 46.578125 -24.328125 L 46.765625 -21.265625 L 46.515625 -19.5 L 46.453125 -18.21875 L 46.15625 -17 L 46.09375 -15.890625 L 45.59375 -13.5625 L 44.6875 -11.25 L 42 -7.15625 L 41.140625 -6.296875 L 40.34375 -5.203125 L 38.625 -3.734375 L 37.46875 -3.171875 L 36.546875 -2.4375 L 34.53125 -1.34375 L 29.953125 0.1875 L 26.28125 0.671875 Z M 26.28125 -10.078125 L 27.5 -10.328125 L 28.421875 -10.765625 L 29.515625 -11.0625 L 32.453125 -13.078125 L 33.3125 -14.0625 L 33.6875 -14.96875 L 34.359375 -16.078125 L 34.78125 -17.171875 L 35.265625 -19.4375 L 35.390625 -23.171875 L 35.203125 -24.265625 L 34.65625 -25.421875 L 33.921875 -27.75 L 31.546875 -30.25 L 29.640625 -31.609375 L 28.546875 -32.09375 L 27.4375 -32.328125 L 24.515625 -32.703125 L 22.796875 -32.578125 L 20.421875 -31.96875 L 19.625 -31.65625 L 16.5625 -29.578125 L 15.09375 -27.625 L 14.734375 -26.53125 L 14.234375 -25.421875 L 14.0625 -24.265625 L 13.75 -23.171875 L 13.75 -19.4375 L 14.234375 -17.171875 L 14.796875 -16.078125 L 15.09375 -15.09375 L 15.953125 -13.9375 L 16.75 -13.078125 L 18.40625 -11.734375 L 19.375 -11.1875 L 21.578125 -10.265625 L 22.921875 -10.078125 Z M 26.28125 -10.078125 "/></g></g></g><g fill="#ffbd59" fill-opacity="1"><g transform="translate(204.780079, 84.041318)"><g><path d="M 4.46875 -1.828125 L 4.40625 -4.15625 L 4.640625 -7.828125 L 4.46875 -10.328125 L 4.578125 -15.34375 L 4.46875 -16.5 L 4.46875 -18.953125 L 4.578125 -20.109375 L 4.40625 -21.390625 L 4.40625 -26.28125 L 4.515625 -27.4375 L 4.46875 -28.734375 L 4.578125 -29.890625 L 4.46875 -31.171875 L 4.640625 -32.453125 L 4.40625 -36.546875 L 4.515625 -38.328125 L 4.40625 -40.953125 L 4.953125 -42.234375 L 6.171875 -42.78125 L 24.578125 -42.671875 L 28 -41.875 L 30.25 -40.640625 L 32.09375 -39.359375 L 32.953125 -38.515625 L 34.40625 -36.546875 L 34.78125 -35.390625 L 35.390625 -34.234375 L 36.0625 -31.96875 L 36.125 -30.203125 L 35.265625 -25.796875 L 34.53125 -24.75 L 33.859375 -23.53125 L 33.625 -22.3125 L 34.171875 -20.96875 L 35.078125 -20.046875 L 35.9375 -19.015625 L 37.046875 -16.875 L 37.46875 -15.59375 L 37.71875 -14.421875 L 37.65625 -9.53125 L 37.15625 -8.3125 L 36.921875 -7.28125 L 36.375 -6.109375 L 34.96875 -4.09375 L 33.984375 -3.171875 L 33.1875 -2.5625 L 30.875 -1.21875 L 28.84375 -0.421875 L 26.53125 -0.125 L 6.296875 0.125 L 5.140625 -0.421875 Z M 17 -26.21875 L 21.578125 -26.21875 L 23.65625 -26.65625 L 24.6875 -27.625 L 25 -29.46875 L 24.8125 -31.109375 L 24.015625 -31.96875 L 23.28125 -32.453125 L 21.390625 -32.828125 L 17 -33 L 15.703125 -32.328125 L 15.03125 -31.296875 L 15.15625 -30.140625 L 15.15625 -28.96875 L 14.921875 -27.9375 L 15.53125 -26.71875 Z M 16.8125 -9.71875 L 21.578125 -9.65625 L 24.875 -9.96875 L 25.984375 -10.640625 L 26.765625 -11.484375 L 26.890625 -13.078125 L 26.765625 -14.796875 L 25.859375 -15.640625 L 24.9375 -16.328125 L 23.234375 -16.625 L 16.75 -16.625 L 15.53125 -16.015625 L 15.09375 -14.921875 L 15.03125 -13.6875 L 15.15625 -12.53125 L 15.09375 -11.484375 L 15.765625 -10.203125 Z M 16.8125 -9.71875 "/></g></g></g><g fill="#ffbd59" fill-opacity="1"><g transform="translate(245.120333, 84.041318)"><g><path d="M 0.796875 -1.65625 L 1.53125 -4.21875 L 2.078125 -5.4375 L 2.8125 -6.421875 L 4.578125 -10.875 L 6.296875 -14.0625 L 6.71875 -15.28125 L 7.28125 -16.265625 L 7.640625 -17.546875 L 8.5 -19.125 L 8.921875 -20.296875 L 9.84375 -21.875 L 10.8125 -24.078125 L 11.484375 -25.1875 L 11.796875 -26.21875 L 15.21875 -33.921875 L 15.890625 -35.03125 L 18.515625 -40.53125 L 18.890625 -41.625 L 20.046875 -42.71875 L 22 -43.34375 L 24.078125 -42.78125 L 25.1875 -41.625 L 25.546875 -40.46875 L 26.09375 -39.546875 L 27.078125 -37.21875 L 28.296875 -34.96875 L 29.21875 -32.828125 L 29.515625 -31.84375 L 30.625 -29.515625 L 30.984375 -28.359375 L 32.21875 -26.21875 L 32.515625 -25.0625 L 33.125 -24.015625 L 33.625 -22.984375 L 34.296875 -21.875 L 34.65625 -20.65625 L 35.203125 -19.75 L 35.640625 -18.515625 L 36.1875 -17.484375 L 36.671875 -16.265625 L 37.34375 -15.28125 L 38.203125 -13.015625 L 38.8125 -11.984375 L 39.25 -10.8125 L 40.28125 -8.625 L 40.640625 -7.453125 L 41.265625 -6.546875 L 41.625 -5.3125 L 42.421875 -4.28125 L 42.84375 -3.171875 L 43.21875 -1.65625 L 42.96875 -0.359375 L 41.875 0 L 38.078125 0.125 L 35.9375 -0.0625 L 34.84375 0.0625 L 33.25 -0.546875 L 32.21875 -1.53125 L 31.546875 -2.625 L 31.234375 -3.734375 L 29.953125 -4.703125 L 27.9375 -5.375 L 25.0625 -5.25 L 23.78125 -5.375 L 22.671875 -5.375 L 21.265625 -5.203125 L 19.984375 -5.375 L 16.5625 -5.3125 L 15.34375 -5.4375 L 13.875 -4.828125 L 12.84375 -3.671875 L 11.796875 -1.59375 L 10.703125 -0.484375 L 9.296875 0.125 L 7.703125 -0.0625 L 2.328125 -0.0625 L 1.09375 -0.359375 Z M 19.6875 -15.09375 L 24.453125 -15.15625 L 25.484375 -15.640625 L 25.609375 -16.75 L 25.1875 -17.84375 L 24.578125 -19.078125 L 24.328125 -20.046875 L 23.65625 -21.09375 L 22.859375 -23.46875 L 22.125 -23.96875 L 21.328125 -23.34375 L 20.78125 -22.375 L 18.34375 -16.8125 L 18.515625 -15.59375 Z M 19.6875 -15.09375 "/></g></g></g><g fill="#ffbd59" fill-opacity="1"><g transform="translate(289.494615, 84.041318)"><g><path d="M 4.578125 -1.765625 L 4.46875 -3.0625 L 4.703125 -4.21875 L 4.578125 -5.4375 L 4.640625 -12.890625 L 4.515625 -14 L 4.46875 -16.4375 L 4.640625 -17.671875 L 4.46875 -20.109375 L 4.640625 -21.265625 L 4.46875 -23.90625 L 4.640625 -25.0625 L 4.515625 -26.28125 L 4.703125 -27.390625 L 4.515625 -28.671875 L 4.640625 -29.890625 L 4.578125 -31.046875 L 4.765625 -32.390625 L 4.640625 -33.5625 L 4.46875 -34.78125 L 4.640625 -36.0625 L 4.765625 -37.21875 L 4.40625 -40.40625 L 5.203125 -42.046875 L 6.96875 -42.71875 L 13.328125 -42.84375 L 14.921875 -42.109375 L 15.53125 -40.28125 L 15.640625 -37.28125 L 15.53125 -35.9375 L 15.703125 -26.40625 L 15.53125 -25.125 L 15.703125 -23.78125 L 15.53125 -22.0625 L 15.59375 -19.015625 L 15.46875 -17.71875 L 15.59375 -16.5 L 15.53125 -15.15625 L 15.703125 -14 L 15.640625 -11.734375 L 16.015625 -10.390625 L 17.296875 -9.84375 L 28.0625 -9.71875 L 29.40625 -9.90625 L 30.375 -9.296875 L 31.171875 -7.953125 L 30.984375 -6.78125 L 31.171875 -5.4375 L 31.046875 -4.34375 L 30.984375 -3.125 L 31.109375 -1.765625 L 30.4375 -0.671875 L 28.734375 -0.0625 L 7.09375 0.0625 L 5.140625 -0.671875 Z M 4.578125 -1.765625 "/></g></g></g><g fill="#ffbd59" fill-opacity="1"><g transform="translate(322.378026, 84.041318)"><g/></g></g><g fill="#d9d9d9" fill-opacity="1"><g transform="translate(338.953506, 84.041318)"><g><path d="M 24.515625 0.796875 L 20.84375 0.609375 L 15.640625 -0.921875 L 14.484375 -1.40625 L 10.328125 -3.609375 L 9.53125 -4.515625 L 7.828125 -6.171875 L 4.953125 -10.078125 L 4.34375 -11.1875 L 3.96875 -12.46875 L 3.0625 -14.546875 L 2.390625 -18.40625 L 2.625 -25.484375 L 3.125 -28.125 L 4.28125 -31.484375 L 4.828125 -32.515625 L 6.90625 -35.578125 L 8.5625 -37.40625 L 10.515625 -38.75 L 11.375 -39.484375 L 14.484375 -41.4375 L 16.8125 -42.046875 L 17.90625 -42.546875 L 19.125 -42.90625 L 20.359375 -43.15625 L 24.640625 -43.40625 L 27.5 -43.34375 L 35.515625 -40.828125 L 38.625 -38.875 L 41.265625 -36.484375 L 42.046875 -35.390625 L 42.78125 -34.65625 L 43.578125 -33.625 L 44.015625 -32.515625 L 45.109375 -30.5 L 45.421875 -29.09375 L 45.90625 -27.8125 L 46.390625 -25.546875 L 46.703125 -21.328125 L 46.390625 -17.046875 L 46.15625 -15.703125 L 45.78125 -14.734375 L 45.59375 -13.515625 L 45.171875 -12.34375 L 42.78125 -8.125 L 42 -7.03125 L 37.71875 -2.9375 L 32.28125 -0.484375 L 29.953125 0.25 Z M 22.796875 -9.96875 L 26.34375 -10.078125 L 27.5 -10.390625 L 28.609375 -10.515625 L 29.578125 -11.0625 L 30.6875 -11.546875 L 32.578125 -13.015625 L 33.3125 -14.125 L 33.859375 -15.03125 L 34.53125 -15.953125 L 35.078125 -18.453125 L 35.453125 -21.515625 L 35.203125 -24.140625 L 34.78125 -25.25 L 34.40625 -26.46875 L 33.921875 -27.5625 L 32.515625 -29.640625 L 30.625 -31.046875 L 27.390625 -32.453125 L 24.453125 -32.640625 L 21.640625 -32.390625 L 20.359375 -32.09375 L 19.25 -31.546875 L 17.484375 -30.3125 L 16.5625 -29.515625 L 15.765625 -28.546875 L 15.21875 -27.5 L 14.484375 -26.65625 L 14.125 -25.546875 L 13.6875 -23.28125 L 13.625 -21.453125 L 13.9375 -18.40625 L 15.09375 -14.96875 L 15.890625 -14.125 L 16.5 -13.265625 L 18.40625 -11.609375 L 20.484375 -10.515625 L 21.578125 -10.390625 Z M 22.796875 -9.96875 "/></g></g></g><g fill="#d9d9d9" fill-opacity="1"><g transform="translate(387.973028, 84.041318)"><g><path d="M 36.0625 -0.984375 L 35.265625 -1.765625 L 34.53125 -2.6875 L 33.5625 -3.484375 L 32.765625 -4.46875 L 26.828125 -10.390625 L 25.859375 -11.1875 L 17.109375 -19.75 L 16.328125 -19.921875 L 15.703125 -19.1875 L 15.953125 -17.90625 L 15.765625 -2.9375 L 15.953125 -1.71875 L 15.40625 -0.484375 L 14.1875 0.125 L 12.78125 0 L 11.484375 0.1875 L 8.4375 0 L 6.359375 0.125 L 5.203125 -0.546875 L 4.640625 -1.890625 L 4.640625 -3.0625 L 4.46875 -4.28125 L 4.640625 -6.59375 L 4.515625 -7.828125 L 4.578125 -10.328125 L 4.40625 -11.609375 L 4.40625 -12.78125 L 4.515625 -14.125 L 4.515625 -15.28125 L 4.640625 -16.375 L 4.40625 -25.125 L 4.578125 -26.40625 L 4.515625 -27.6875 L 4.640625 -28.796875 L 4.46875 -31.296875 L 4.578125 -32.515625 L 4.46875 -41.078125 L 5.25 -42.234375 L 6.71875 -42.96875 L 8.375 -42.484375 L 10.8125 -40.828125 L 14.125 -37.46875 L 14.921875 -36.4375 L 15.953125 -35.703125 L 16.5625 -34.78125 L 17.71875 -33.984375 L 18.40625 -33.0625 L 20.296875 -31.484375 L 21.578125 -30.140625 L 22.25 -29.28125 L 23.234375 -28.546875 L 25.359375 -26.34375 L 26.28125 -25.609375 L 28.96875 -22.859375 L 29.828125 -22.609375 L 30.140625 -23.59375 L 30.078125 -26.046875 L 30.3125 -27.328125 L 30.3125 -28.484375 L 30.078125 -29.765625 L 30.140625 -40.890625 L 30.75 -42.171875 L 32.21875 -42.78125 L 33.4375 -42.71875 L 34.53125 -42.84375 L 35.8125 -42.671875 L 37.15625 -42.78125 L 38.328125 -42.78125 L 39.546875 -42.671875 L 40.890625 -42.046875 L 41.625 -40.953125 L 41.5 -37.78125 L 41.625 -35.9375 L 41.375 -34.71875 L 41.375 -32.28125 L 41.5 -31.109375 L 41.328125 -28.671875 L 41.5625 -21.328125 L 41.4375 -19.984375 L 41.6875 -18.28125 L 41.375 -1.65625 L 40.828125 -0.359375 L 39.421875 0.3125 L 37.84375 -0.1875 Z M 36.0625 -0.984375 "/></g></g></g><g fill="#d9d9d9" fill-opacity="1"><g transform="translate(434.058717, 84.041318)"><g><path d="M 4.40625 -1.765625 L 4.640625 -3 L 4.703125 -4.21875 L 4.578125 -6.59375 L 4.578125 -7.828125 L 4.46875 -9.234375 L 4.640625 -10.328125 L 4.578125 -11.484375 L 4.703125 -12.84375 L 4.515625 -14.125 L 4.640625 -16.5625 L 4.46875 -18.953125 L 4.640625 -20.234375 L 4.640625 -31.171875 L 4.515625 -32.28125 L 4.640625 -33.5625 L 4.40625 -36.671875 L 4.640625 -38.453125 L 4.515625 -40.890625 L 5.140625 -42.234375 L 6.90625 -42.671875 L 14.921875 -42.84375 L 16.015625 -42.71875 L 18.40625 -42.78125 L 19.625 -42.671875 L 22.3125 -42.78125 L 23.53125 -42.609375 L 24.640625 -42.71875 L 29.515625 -42.671875 L 30.8125 -42.109375 L 31.421875 -40.890625 L 31.234375 -39.734375 L 31.171875 -38.390625 L 31.359375 -37.21875 L 31.484375 -34.71875 L 30.8125 -33.625 L 29.515625 -32.953125 L 17.78125 -32.890625 L 15.890625 -32.328125 L 15.28125 -30.5625 L 15.40625 -28.671875 L 16.140625 -27.5625 L 17.171875 -26.890625 L 22 -26.953125 L 23.40625 -26.828125 L 24.6875 -26.828125 L 25.921875 -26.953125 L 28.359375 -26.890625 L 29.40625 -26.21875 L 29.953125 -25.0625 L 30.078125 -23.84375 L 29.953125 -19.015625 L 29.34375 -17.84375 L 28.125 -17.171875 L 27.015625 -17.109375 L 25.734375 -17.234375 L 24.078125 -17.109375 L 20.84375 -17.296875 L 19.625 -17.171875 L 17.234375 -17.171875 L 16.140625 -16.5 L 15.59375 -15.21875 L 15.53125 -12.21875 L 16.078125 -10.328125 L 17.359375 -9.59375 L 18.703125 -9.71875 L 20.046875 -9.59375 L 21.203125 -9.78125 L 29.28125 -9.65625 L 31.109375 -9.046875 L 31.90625 -7.828125 L 31.78125 -6.65625 L 31.84375 -2.875 L 31.71875 -1.71875 L 31.171875 -0.546875 L 29.890625 0.0625 L 28.734375 0.1875 L 25 -0.0625 L 21.265625 0.125 L 20.171875 -0.0625 L 6.359375 0.0625 L 5.203125 -0.609375 Z M 4.40625 -1.765625 "/></g></g></g><g fill="#d9d9d9" fill-opacity="1"><g transform="translate(469.081399, 84.041318)"><g/></g></g><g fill="#ffffff" fill-opacity="1"><g transform="translate(485.652428, 84.041318)"><g><path d="M 16.4375 0.546875 L 13.9375 0.125 L 11.546875 -0.734375 L 10.328125 -1.09375 L 9.171875 -1.65625 L 8.3125 -2.5625 L 6.171875 -3.90625 L 5.375 -4.828125 L 4.515625 -5.625 L 3.359375 -7.890625 L 3 -8.984375 L 2.75 -10.203125 L 2.5625 -11.4375 L 3.0625 -12.71875 L 4.15625 -13.203125 L 8.859375 -13.453125 L 10.03125 -13.265625 L 11.125 -13.390625 L 12.34375 -12.890625 L 14.359375 -10.703125 L 15.40625 -10.03125 L 16.4375 -9.46875 L 19.5625 -9.171875 L 20.65625 -9.359375 L 22.5625 -9.46875 L 24.640625 -10.390625 L 25.421875 -11.3125 L 25.921875 -12.84375 L 25.546875 -14.359375 L 24.75 -15.09375 L 22.5625 -16.140625 L 12.953125 -17.234375 L 10.765625 -17.96875 L 6.59375 -20.234375 L 4.34375 -23.046875 L 3.359375 -25.1875 L 2.9375 -27.625 L 2.875 -29.515625 L 3.0625 -32.515625 L 4.15625 -35.875 L 6.296875 -38.75 L 9.234375 -40.765625 L 11.3125 -42 L 13.625 -42.71875 L 14.734375 -42.90625 L 15.953125 -42.96875 L 17.296875 -43.34375 L 22 -43.21875 L 24.390625 -42.71875 L 27.8125 -41.5625 L 31.84375 -38.75 L 33.1875 -36.921875 L 34.90625 -33.734375 L 35.03125 -32.578125 L 35.265625 -31.421875 L 34.78125 -30.375 L 33.625 -29.515625 L 32.515625 -29.640625 L 31.296875 -29.640625 L 29.640625 -29.765625 L 26.765625 -29.515625 L 25.421875 -30.3125 L 24.515625 -31.546875 L 23.46875 -32.390625 L 22.375 -33.125 L 21.265625 -33.4375 L 19.3125 -33.6875 L 17.359375 -33.625 L 16.265625 -33.375 L 15.28125 -32.828125 L 14.359375 -32.15625 L 13.625 -31.359375 L 13.328125 -29.703125 L 13.5625 -27.875 L 14.484375 -27.015625 L 16.75 -25.921875 L 19.984375 -25.25 L 21.765625 -25.25 L 23.046875 -25 L 24.265625 -24.9375 L 25.484375 -24.75 L 30.25 -23.28125 L 31.359375 -22.609375 L 32.328125 -22.125 L 33.4375 -21.15625 L 35.03125 -19.3125 L 35.703125 -18.34375 L 36.609375 -14.796875 L 36.734375 -12.84375 L 36.375 -9.78125 L 36 -8.734375 L 35.640625 -7.640625 L 34.96875 -6.296875 L 34.359375 -5.4375 L 32.578125 -3.609375 L 28.421875 -1.09375 L 27.265625 -0.546875 L 26.15625 -0.421875 L 24.9375 0.0625 L 23.71875 0.25 L 22.5 0.546875 L 21.265625 0.671875 Z M 16.4375 0.546875 "/></g></g></g><g fill="#ffffff" fill-opacity="1"><g transform="translate(524.648009, 84.041318)"><g><path d="M 4.40625 -1.765625 L 4.640625 -3 L 4.703125 -4.21875 L 4.578125 -6.59375 L 4.578125 -7.828125 L 4.46875 -9.234375 L 4.640625 -10.328125 L 4.578125 -11.484375 L 4.703125 -12.84375 L 4.515625 -14.125 L 4.640625 -16.5625 L 4.46875 -18.953125 L 4.640625 -20.234375 L 4.640625 -31.171875 L 4.515625 -32.28125 L 4.640625 -33.5625 L 4.40625 -36.671875 L 4.640625 -38.453125 L 4.515625 -40.890625 L 5.140625 -42.234375 L 6.90625 -42.671875 L 14.921875 -42.84375 L 16.015625 -42.71875 L 18.40625 -42.78125 L 19.625 -42.671875 L 22.3125 -42.78125 L 23.53125 -42.609375 L 24.640625 -42.71875 L 29.515625 -42.671875 L 30.8125 -42.109375 L 31.421875 -40.890625 L 31.234375 -39.734375 L 31.171875 -38.390625 L 31.359375 -37.21875 L 31.484375 -34.71875 L 30.8125 -33.625 L 29.515625 -32.953125 L 17.78125 -32.890625 L 15.890625 -32.328125 L 15.28125 -30.5625 L 15.40625 -28.671875 L 16.140625 -27.5625 L 17.171875 -26.890625 L 22 -26.953125 L 23.40625 -26.828125 L 24.6875 -26.828125 L 25.921875 -26.953125 L 28.359375 -26.890625 L 29.40625 -26.21875 L 29.953125 -25.0625 L 30.078125 -23.84375 L 29.953125 -19.015625 L 29.34375 -17.84375 L 28.125 -17.171875 L 27.015625 -17.109375 L 25.734375 -17.234375 L 24.078125 -17.109375 L 20.84375 -17.296875 L 19.625 -17.171875 L 17.234375 -17.171875 L 16.140625 -16.5 L 15.59375 -15.21875 L 15.53125 -12.21875 L 16.078125 -10.328125 L 17.359375 -9.59375 L 18.703125 -9.71875 L 20.046875 -9.59375 L 21.203125 -9.78125 L 29.28125 -9.65625 L 31.109375 -9.046875 L 31.90625 -7.828125 L 31.78125 -6.65625 L 31.84375 -2.875 L 31.71875 -1.71875 L 31.171875 -0.546875 L 29.890625 0.0625 L 28.734375 0.1875 L 25 -0.0625 L 21.265625 0.125 L 20.171875 -0.0625 L 6.359375 0.0625 L 5.203125 -0.609375 Z M 4.40625 -1.765625 "/></g></g></g><g fill="#ffffff" fill-opacity="1"><g transform="translate(559.670691, 84.041318)"><g><path d="M 4.703125 -1.953125 L 4.515625 -6.71875 L 4.640625 -8 L 4.40625 -11.546875 L 4.578125 -14.0625 L 4.40625 -15.40625 L 4.46875 -17.71875 L 4.578125 -19.015625 L 4.578125 -22.0625 L 4.40625 -23.84375 L 4.578125 -40.953125 L 5.078125 -42.234375 L 6.234375 -42.78125 L 7.578125 -42.71875 L 8.734375 -42.90625 L 11.25 -42.671875 L 12.40625 -42.84375 L 16.078125 -42.71875 L 17.109375 -42.84375 L 18.453125 -42.71875 L 19.6875 -42.84375 L 21.03125 -42.78125 L 22.796875 -42.84375 L 24.328125 -42.71875 L 29.40625 -41.6875 L 31.546875 -40.59375 L 34.59375 -38.265625 L 35.140625 -37.34375 L 36 -36.4375 L 37.65625 -33.0625 L 37.953125 -31.84375 L 38.140625 -30.6875 L 38.453125 -29.515625 L 38.390625 -24.6875 L 37.71875 -22.375 L 37.28125 -21.328125 L 36.609375 -20.234375 L 36.1875 -19.078125 L 35.453125 -18.03125 L 33.734375 -16.375 L 33.0625 -15.09375 L 33.25 -13.625 L 35.078125 -10.453125 L 35.875 -9.46875 L 36.484375 -8.375 L 37.21875 -7.28125 L 37.78125 -6.234375 L 39.734375 -3.234375 L 40.53125 -1.71875 L 40.28125 -0.421875 L 39 -0.125 L 37.65625 0 L 35.203125 0 L 33.984375 -0.125 L 32.640625 0 L 30.4375 -0.125 L 28.90625 -0.484375 L 27.6875 -1.59375 L 26.953125 -2.5625 L 26.40625 -3.609375 L 25.609375 -4.765625 L 23.90625 -7.828125 L 23.46875 -8.984375 L 21.875 -11.125 L 20.90625 -12.15625 L 19.375 -12.65625 L 18.28125 -12.59375 L 17.171875 -12.59375 L 15.953125 -11.984375 L 15.40625 -10.765625 L 15.53125 -6.96875 L 15.34375 -4.34375 L 15.59375 -3.0625 L 15.46875 -1.765625 L 15.03125 -0.609375 L 13.140625 0 L 11.3125 0 L 10.03125 -0.125 L 7.515625 0.0625 L 6.359375 0 L 5.140625 -0.609375 Z M 17.171875 -22.5 L 18.515625 -22.5 L 19.75 -22.3125 L 24.515625 -22.734375 L 25.421875 -23.171875 L 26.15625 -23.90625 L 26.828125 -24.9375 L 27.328125 -26.15625 L 27.5 -27.8125 L 27.390625 -29.578125 L 26.953125 -30.5625 L 26.34375 -31.484375 L 24.453125 -32.640625 L 21.640625 -33 L 18.28125 -33.0625 L 17.296875 -33 L 16.078125 -32.390625 L 15.34375 -31.171875 L 15.53125 -24.328125 L 16.140625 -23.046875 Z M 17.171875 -22.5 "/></g></g></g><g fill="#ffffff" fill-opacity="1"><g transform="translate(602.027959, 84.041318)"><g><path d="M 17.234375 -1.09375 L 15.59375 -4.46875 L 15.28125 -5.75 L 14.671875 -6.65625 L 13.078125 -10.203125 L 12.71875 -11.375 L 11.671875 -13.5625 L 11.375 -14.609375 L 7.328125 -23.71875 L 6.71875 -24.6875 L 4.890625 -29.15625 L 4.28125 -30.25 L 3.296875 -32.640625 L 2.625 -33.796875 L 2.265625 -34.90625 L 1.71875 -36 L 0.796875 -38.328125 L 0.25 -39.421875 L 0 -40.890625 L 0.125 -42.234375 L 1.40625 -42.78125 L 2.6875 -42.84375 L 3.796875 -42.71875 L 4.828125 -42.84375 L 8.25 -42.671875 L 9.65625 -42.171875 L 10.703125 -40.953125 L 11.25 -39.96875 L 11.671875 -38.875 L 12.28125 -37.71875 L 12.46875 -36.546875 L 14.609375 -32.15625 L 14.859375 -30.921875 L 15.28125 -29.828125 L 15.828125 -28.84375 L 16.5625 -26.40625 L 17.234375 -25.3125 L 17.671875 -24.328125 L 18.03125 -23.109375 L 18.515625 -22 L 19.3125 -19.6875 L 19.796875 -18.578125 L 20.53125 -18.703125 L 21.265625 -19.796875 L 21.578125 -20.90625 L 22.1875 -22.0625 L 29.46875 -39.96875 L 29.765625 -41.078125 L 30.875 -42.234375 L 32.28125 -42.71875 L 39.484375 -42.71875 L 40.53125 -42.359375 L 40.890625 -40.828125 L 40.28125 -39.359375 L 40.03125 -38.328125 L 39.421875 -37.15625 L 39 -35.9375 L 38.328125 -34.90625 L 38.015625 -33.796875 L 37.109375 -31.421875 L 36.3125 -30.5 L 36 -29.34375 L 35.140625 -28.234375 L 34.84375 -27.078125 L 34.53125 -26.046875 L 33.859375 -24.8125 L 33.1875 -22.5 L 31.90625 -20.296875 L 31.171875 -17.90625 L 27.5 -10.078125 L 27.140625 -8.984375 L 26.15625 -6.78125 L 25.546875 -5.75 L 25 -4.578125 L 23.96875 -2.203125 L 23.59375 -1.046875 L 22.5625 -0.0625 L 20.90625 0.671875 L 19.6875 0.546875 L 18.21875 0 Z M 17.234375 -1.09375 "/></g></g></g><g fill="#ffffff" fill-opacity="1"><g transform="translate(643.223916, 84.041318)"><g><path d="M 2.9375 -1.765625 L 2.9375 -6.484375 L 3.0625 -7.640625 L 3.796875 -8.796875 L 7.828125 -10.078125 L 8.4375 -11.4375 L 8.5625 -13.8125 L 8.3125 -16.4375 L 8.625 -17.671875 L 8.375 -20.046875 L 8.5 -21.265625 L 8.5625 -23.78125 L 8.375 -25.1875 L 8.3125 -26.21875 L 8.5 -31.421875 L 7.703125 -32.515625 L 3.96875 -33.796875 L 3.359375 -34.96875 L 3.359375 -36.125 L 3.234375 -37.34375 L 3.234375 -38.6875 L 3.359375 -39.734375 L 3.359375 -40.890625 L 4.03125 -42.171875 L 5.375 -42.78125 L 7.765625 -42.671875 L 8.921875 -42.71875 L 12.65625 -42.671875 L 14 -42.78125 L 21.765625 -42.71875 L 23.71875 -42.171875 L 24.203125 -40.953125 L 24.328125 -39.734375 L 24.203125 -38.625 L 24.203125 -35.03125 L 23.53125 -33.859375 L 22.375 -33.1875 L 21.03125 -33.125 L 19.859375 -32.453125 L 19.1875 -31.359375 L 19.1875 -28.796875 L 19.3125 -27.5 L 19.1875 -26.28125 L 19.3125 -25.125 L 19.1875 -23.234375 L 19.3125 -21.390625 L 19.078125 -18.828125 L 19.3125 -16.375 L 19.1875 -11.375 L 19.859375 -10.140625 L 23.96875 -8.859375 L 24.8125 -7.828125 L 24.640625 -4.09375 L 24.75 -3 L 24.75 -1.65625 L 24.078125 -0.546875 L 22.921875 0.0625 L 4.765625 -0.0625 L 3.546875 -0.484375 Z M 2.9375 -1.765625 "/></g></g></g><g fill="#ffffff" fill-opacity="1"><g transform="translate(670.97313, 84.041318)"><g><path d="M 22.5 0.609375 L 21.328125 0.609375 L 20.234375 0.359375 L 18.953125 0.25 L 17.671875 -0.1875 L 16.75 -0.421875 L 15.53125 -0.859375 L 11.375 -3.125 L 10.453125 -3.84375 L 9.40625 -4.515625 L 7.21875 -6.65625 L 4.765625 -10.203125 L 4.34375 -11.25 L 3.734375 -12.34375 L 3.546875 -13.453125 L 3.0625 -14.609375 L 2.4375 -17 L 2.4375 -19.4375 L 2.203125 -21.390625 L 3.296875 -29.03125 L 6.109375 -34.53125 L 6.84375 -35.578125 L 8.5 -37.109375 L 9.234375 -38.078125 L 13.515625 -40.828125 L 14.609375 -41.265625 L 15.53125 -41.8125 L 16.6875 -42.234375 L 19.078125 -42.71875 L 20.234375 -43.09375 L 21.265625 -43.21875 L 26.828125 -43.21875 L 29.890625 -42.78125 L 32.28125 -42.109375 L 35.765625 -40.53125 L 37.109375 -39.609375 L 40.28125 -36.734375 L 42.546875 -33.625 L 43.515625 -31.296875 L 43.703125 -30.203125 L 44.1875 -28.96875 L 43.828125 -27.6875 L 42.84375 -27.140625 L 41.625 -27.015625 L 35.453125 -27.140625 L 34.109375 -27.6875 L 33 -28.84375 L 32.453125 -29.890625 L 31.546875 -30.875 L 29.765625 -32.328125 L 28.484375 -32.765625 L 26.15625 -33.1875 L 22.375 -33.3125 L 20.234375 -32.703125 L 19.078125 -32.21875 L 17.046875 -30.75 L 15.53125 -28.84375 L 14.484375 -26.65625 L 14.125 -25.546875 L 14.0625 -24.328125 L 13.625 -23.234375 L 13.5625 -21.265625 L 13.75 -18.40625 L 14.484375 -16.015625 L 14.96875 -14.96875 L 17.234375 -12.046875 L 18.03125 -11.1875 L 19.1875 -10.640625 L 22.5 -9.40625 L 25.921875 -9.359375 L 27.203125 -9.46875 L 28.421875 -9.84375 L 30.5 -10.875 L 32.828125 -13.390625 L 33.3125 -14.421875 L 34.53125 -15.59375 L 35.875 -16.203125 L 42.421875 -16.140625 L 43.953125 -15.46875 L 44.3125 -14.359375 L 44.125 -13.203125 L 43.703125 -11.984375 L 43.40625 -10.8125 L 42.84375 -9.71875 L 41.015625 -6.546875 L 39.96875 -5.75 L 39.296875 -4.703125 L 38.515625 -3.90625 L 37.46875 -3.171875 L 36.375 -2.5 L 35.453125 -1.890625 L 32.09375 -0.421875 L 26.15625 0.796875 Z M 22.5 0.609375 "/></g></g></g><g fill="#ffffff" fill-opacity="1"><g transform="translate(717.608915, 84.041318)"><g><path d="M 4.40625 -1.765625 L 4.640625 -3 L 4.703125 -4.21875 L 4.578125 -6.59375 L 4.578125 -7.828125 L 4.46875 -9.234375 L 4.640625 -10.328125 L 4.578125 -11.484375 L 4.703125 -12.84375 L 4.515625 -14.125 L 4.640625 -16.5625 L 4.46875 -18.953125 L 4.640625 -20.234375 L 4.640625 -31.171875 L 4.515625 -32.28125 L 4.640625 -33.5625 L 4.40625 -36.671875 L 4.640625 -38.453125 L 4.515625 -40.890625 L 5.140625 -42.234375 L 6.90625 -42.671875 L 14.921875 -42.84375 L 16.015625 -42.71875 L 18.40625 -42.78125 L 19.625 -42.671875 L 22.3125 -42.78125 L 23.53125 -42.609375 L 24.640625 -42.71875 L 29.515625 -42.671875 L 30.8125 -42.109375 L 31.421875 -40.890625 L 31.234375 -39.734375 L 31.171875 -38.390625 L 31.359375 -37.21875 L 31.484375 -34.71875 L 30.8125 -33.625 L 29.515625 -32.953125 L 17.78125 -32.890625 L 15.890625 -32.328125 L 15.28125 -30.5625 L 15.40625 -28.671875 L 16.140625 -27.5625 L 17.171875 -26.890625 L 22 -26.953125 L 23.40625 -26.828125 L 24.6875 -26.828125 L 25.921875 -26.953125 L 28.359375 -26.890625 L 29.40625 -26.21875 L 29.953125 -25.0625 L 30.078125 -23.84375 L 29.953125 -19.015625 L 29.34375 -17.84375 L 28.125 -17.171875 L 27.015625 -17.109375 L 25.734375 -17.234375 L 24.078125 -17.109375 L 20.84375 -17.296875 L 19.625 -17.171875 L 17.234375 -17.171875 L 16.140625 -16.5 L 15.59375 -15.21875 L 15.53125 -12.21875 L 16.078125 -10.328125 L 17.359375 -9.59375 L 18.703125 -9.71875 L 20.046875 -9.59375 L 21.203125 -9.78125 L 29.28125 -9.65625 L 31.109375 -9.046875 L 31.90625 -7.828125 L 31.78125 -6.65625 L 31.84375 -2.875 L 31.71875 -1.71875 L 31.171875 -0.546875 L 29.890625 0.0625 L 28.734375 0.1875 L 25 -0.0625 L 21.265625 0.125 L 20.171875 -0.0625 L 6.359375 0.0625 L 5.203125 -0.609375 Z M 4.40625 -1.765625 "/></g></g></g><g fill="#ffffff" fill-opacity="1"><g transform="translate(752.631609, 84.041318)"><g><path d="M 17.71875 0.484375 L 15.15625 0.3125 L 14 -0.125 L 12.65625 -0.3125 L 8.25 -2.328125 L 7.21875 -3 L 5.4375 -4.765625 L 3.90625 -6.65625 L 2.9375 -9.109375 L 2.6875 -10.203125 L 2.5625 -11.546875 L 3 -12.84375 L 4.21875 -13.390625 L 5.4375 -13.328125 L 6.65625 -13.453125 L 11.3125 -13.328125 L 12.53125 -12.84375 L 13.453125 -11.609375 L 14.359375 -10.765625 L 15.46875 -10.078125 L 16.375 -9.65625 L 17.78125 -9.296875 L 19.625 -9.171875 L 21.328125 -9.234375 L 23.59375 -9.90625 L 24.578125 -10.453125 L 25.546875 -11.3125 L 25.921875 -12.890625 L 25.609375 -14.484375 L 24.75 -15.21875 L 22.5625 -16.140625 L 21.328125 -16.203125 L 20.234375 -16.375 L 15.21875 -16.75 L 13.015625 -17.234375 L 9.53125 -18.40625 L 7.390625 -19.6875 L 5.6875 -21.265625 L 4.15625 -23.28125 L 3.359375 -25.421875 L 2.9375 -27.140625 L 2.875 -31.234375 L 3.734375 -34.78125 L 4.34375 -35.765625 L 4.765625 -36.859375 L 5.5625 -37.65625 L 6.234375 -38.6875 L 7.328125 -39.421875 L 8.1875 -40.21875 L 9.40625 -40.953125 L 10.390625 -41.328125 L 11.375 -41.9375 L 12.46875 -42.359375 L 17.296875 -43.34375 L 20.71875 -43.40625 L 22.0625 -43.09375 L 23.171875 -42.96875 L 24.453125 -42.71875 L 27.8125 -41.5625 L 31.71875 -38.875 L 32.515625 -37.953125 L 33.125 -36.984375 L 33.921875 -36 L 34.90625 -33.796875 L 35.390625 -31.421875 L 34.84375 -30.25 L 33.6875 -29.515625 L 32.515625 -29.640625 L 31.421875 -29.515625 L 27.390625 -29.640625 L 25.484375 -30.25 L 23.46875 -32.390625 L 22.5625 -33.125 L 21.203125 -33.625 L 17.296875 -33.5 L 16.203125 -33.25 L 15.34375 -32.890625 L 14.296875 -32.09375 L 13.625 -31.234375 L 13.453125 -29.640625 L 13.515625 -28 L 14.484375 -27.015625 L 15.40625 -26.53125 L 17.96875 -25.609375 L 24.140625 -24.8125 L 29.15625 -23.59375 L 32.390625 -22.125 L 33.4375 -21.265625 L 34.90625 -19.375 L 36.125 -17.109375 L 36.4375 -15.953125 L 36.609375 -14.734375 L 36.546875 -10.9375 L 36.375 -9.84375 L 36 -8.625 L 35.515625 -7.515625 L 34.296875 -5.5625 L 32.578125 -3.609375 L 30.625 -2.265625 L 27.4375 -0.546875 L 21.453125 0.609375 L 19.5 0.671875 Z M 17.71875 0.484375 "/></g></g></g></svg>