<svg xmlns="http://www.w3.org/2000/svg" xmlns:xlink="http://www.w3.org/1999/xlink" width="652" zoomAndPan="magnify" viewBox="0 0 488.87997 100.499997" height="134" preserveAspectRatio="xMidYMid meet" version="1.0"><defs><g/></defs><g fill="#e3e3e3" fill-opacity="1"><g transform="translate(22.12956, 65.382262)"><g><path d="M 16.609375 0.625 L 15.0625 0.53125 L 14.09375 0.53125 L 12.21875 0.140625 L 10.375 -0.671875 L 9.65625 -1.109375 L 8.6875 -1.546875 L 7.140625 -2.5625 L 6.421875 -3.1875 L 5.84375 -3.859375 L 4.734375 -5.59375 L 3.953125 -7.234375 L 3.46875 -9.21875 L 3.1875 -13.078125 L 3.328125 -20.859375 L 3.234375 -21.78125 L 3.375 -22.734375 L 3.234375 -29.5 L 3.328125 -30.265625 L 3.328125 -31.4375 L 3.234375 -32.390625 L 3.859375 -33.3125 L 4.875 -33.703125 L 5.890625 -33.84375 L 7.96875 -33.65625 L 8.9375 -33.796875 L 9.84375 -33.796875 L 10.859375 -33.359375 L 11.4375 -32.296875 L 11.546875 -30.90625 L 11.4375 -29.359375 L 11.546875 -28.625 L 11.390625 -13.078125 L 11.6875 -10.28125 L 11.96875 -9.359375 L 12.546875 -8.59375 L 13.328125 -8.015625 L 14.140625 -7.53125 L 15.25 -7.296875 L 18.15625 -7.296875 L 19.84375 -7.921875 L 20.671875 -8.5 L 21.203125 -9.46875 L 21.484375 -10.1875 L 21.828125 -13.1875 L 21.71875 -32.203125 L 22.25 -33.265625 L 23.265625 -33.75 L 25.296875 -33.609375 L 28.34375 -33.703125 L 29.40625 -33.359375 L 30.03125 -32.34375 L 29.890625 -31.375 L 29.890625 -27.375 L 29.984375 -26.609375 L 29.890625 -25.546875 L 29.984375 -24.625 L 29.984375 -11.59375 L 29.734375 -9.265625 L 29.3125 -7.234375 L 28.828125 -6.421875 L 28.53125 -5.453125 L 27.421875 -3.765625 L 26.078125 -2.40625 L 24.484375 -1.359375 L 22.734375 -0.4375 L 18.96875 0.53125 L 18.0625 0.484375 Z M 16.609375 0.625 "/></g></g></g><g fill="#e3e3e3" fill-opacity="1"><g transform="translate(55.439613, 65.382262)"><g><path d="M 28.484375 -0.765625 L 27.859375 -1.40625 L 27.28125 -2.125 L 26.5 -2.75 L 25.875 -3.53125 L 21.203125 -8.203125 L 20.421875 -8.828125 L 13.515625 -15.59375 L 12.890625 -15.734375 L 12.40625 -15.15625 L 12.59375 -14.140625 L 12.453125 -2.3125 L 12.59375 -1.359375 L 12.171875 -0.390625 L 11.203125 0.09375 L 10.09375 0 L 9.078125 0.140625 L 6.65625 0 L 5.015625 0.09375 L 4.109375 -0.4375 L 3.671875 -1.5 L 3.671875 -2.40625 L 3.53125 -3.375 L 3.671875 -5.21875 L 3.578125 -6.1875 L 3.625 -8.15625 L 3.46875 -9.171875 L 3.46875 -10.09375 L 3.578125 -11.15625 L 3.578125 -12.0625 L 3.671875 -12.9375 L 3.46875 -19.84375 L 3.625 -20.859375 L 3.578125 -21.875 L 3.671875 -22.734375 L 3.53125 -24.71875 L 3.625 -25.6875 L 3.53125 -32.4375 L 4.15625 -33.359375 L 5.3125 -33.9375 L 6.609375 -33.5625 L 8.546875 -32.25 L 11.15625 -29.59375 L 11.78125 -28.78125 L 12.59375 -28.203125 L 13.078125 -27.46875 L 14 -26.84375 L 14.53125 -26.125 L 16.03125 -24.859375 L 17.046875 -23.796875 L 17.578125 -23.125 L 18.34375 -22.546875 L 20.03125 -20.8125 L 20.765625 -20.234375 L 22.890625 -18.0625 L 23.5625 -17.859375 L 23.796875 -18.640625 L 23.75 -20.5625 L 23.953125 -21.578125 L 23.953125 -22.5 L 23.75 -23.515625 L 23.796875 -32.296875 L 24.28125 -33.3125 L 25.4375 -33.796875 L 26.40625 -33.75 L 27.28125 -33.84375 L 28.296875 -33.703125 L 29.359375 -33.796875 L 30.265625 -33.796875 L 31.234375 -33.703125 L 32.296875 -33.21875 L 32.875 -32.34375 L 32.78125 -29.84375 L 32.875 -28.390625 L 32.6875 -27.421875 L 32.6875 -25.5 L 32.78125 -24.578125 L 32.640625 -22.640625 L 32.828125 -16.84375 L 32.734375 -15.78125 L 32.921875 -14.4375 L 32.6875 -1.296875 L 32.25 -0.296875 L 31.140625 0.234375 L 29.890625 -0.140625 Z M 28.484375 -0.765625 "/></g></g></g><g fill="#e3e3e3" fill-opacity="1"><g transform="translate(91.839293, 65.382262)"><g><path d="M 2.3125 -1.40625 L 2.3125 -5.125 L 2.40625 -6.03125 L 3 -6.953125 L 6.1875 -7.96875 L 6.65625 -9.03125 L 6.765625 -10.90625 L 6.5625 -12.984375 L 6.8125 -13.953125 L 6.609375 -15.84375 L 6.71875 -16.796875 L 6.765625 -18.78125 L 6.609375 -19.890625 L 6.5625 -20.71875 L 6.71875 -24.8125 L 6.078125 -25.6875 L 3.140625 -26.703125 L 2.65625 -27.609375 L 2.65625 -28.53125 L 2.5625 -29.5 L 2.5625 -30.5625 L 2.65625 -31.375 L 2.65625 -32.296875 L 3.1875 -33.3125 L 4.25 -33.796875 L 6.125 -33.703125 L 7.046875 -33.75 L 10 -33.703125 L 11.0625 -33.796875 L 17.1875 -33.75 L 18.734375 -33.3125 L 19.125 -32.34375 L 19.21875 -31.375 L 19.125 -30.515625 L 19.125 -27.671875 L 18.59375 -26.75 L 17.671875 -26.21875 L 16.609375 -26.171875 L 15.6875 -25.640625 L 15.15625 -24.765625 L 15.15625 -22.734375 L 15.25 -21.71875 L 15.15625 -20.765625 L 15.25 -19.84375 L 15.15625 -18.34375 L 15.25 -16.890625 L 15.0625 -14.875 L 15.25 -12.9375 L 15.15625 -8.984375 L 15.6875 -8.015625 L 18.921875 -7 L 19.609375 -6.1875 L 19.453125 -3.234375 L 19.546875 -2.359375 L 19.546875 -1.296875 L 19.015625 -0.4375 L 18.109375 0.046875 L 3.765625 -0.046875 L 2.796875 -0.390625 Z M 2.3125 -1.40625 "/></g></g></g><g fill="#e3e3e3" fill-opacity="1"><g transform="translate(113.75634, 65.382262)"><g><path d="M 9.265625 -1.5 L 9.21875 -5.265625 L 9.3125 -6.234375 L 9.171875 -9.171875 L 9.21875 -10.1875 L 9.171875 -11.15625 L 9.359375 -12.59375 L 9.21875 -14 L 9.21875 -15.9375 L 9.3125 -16.890625 L 9.21875 -17.8125 L 9.359375 -19.3125 L 9.21875 -24.625 L 8.734375 -25.546875 L 7.875 -26.078125 L 3.578125 -26.125 L 2.3125 -25.96875 L 1.359375 -26.453125 L 0.828125 -27.515625 L 0.875 -32.34375 L 1.359375 -33.3125 L 2.40625 -33.796875 L 16.796875 -33.703125 L 17.90625 -33.84375 L 18.875 -33.84375 L 19.84375 -33.75 L 20.8125 -33.75 L 21.875 -33.890625 L 22.78125 -33.890625 L 23.5625 -33.796875 L 24.71875 -33.890625 L 25.6875 -33.40625 L 26.171875 -32.4375 L 26.078125 -28.484375 L 26.171875 -27.46875 L 25.6875 -26.5 L 24.578125 -26.078125 L 21.921875 -26.125 L 21.046875 -26.03125 L 20.078125 -26.078125 L 19.265625 -26.03125 L 18.203125 -25.59375 L 17.8125 -24.71875 L 17.90625 -23.65625 L 17.765625 -22.6875 L 17.953125 -13.078125 L 17.8125 -11.0625 L 17.90625 -10.1875 L 17.8125 -7.234375 L 17.671875 -6.234375 L 17.8125 -5.40625 L 17.859375 -3.46875 L 17.765625 -2.359375 L 17.8125 -1.453125 L 17.421875 -0.484375 L 16.46875 -0.09375 L 13.46875 -0.09375 L 12.546875 0 L 11.59375 -0.09375 L 10.671875 0 L 9.65625 -0.484375 Z M 9.265625 -1.5 "/></g></g></g><g fill="#e3e3e3" fill-opacity="1"><g transform="translate(140.742312, 65.382262)"><g><path d="M 3.46875 -1.40625 L 3.671875 -2.359375 L 3.71875 -3.328125 L 3.625 -5.21875 L 3.625 -6.1875 L 3.53125 -7.296875 L 3.671875 -8.15625 L 3.625 -9.078125 L 3.71875 -10.140625 L 3.578125 -11.15625 L 3.671875 -13.078125 L 3.53125 -14.96875 L 3.671875 -15.984375 L 3.671875 -24.625 L 3.578125 -25.5 L 3.671875 -26.5 L 3.46875 -28.96875 L 3.671875 -30.375 L 3.578125 -32.296875 L 4.0625 -33.359375 L 5.453125 -33.703125 L 11.78125 -33.84375 L 12.65625 -33.75 L 14.53125 -33.796875 L 15.5 -33.703125 L 17.625 -33.796875 L 18.59375 -33.65625 L 19.453125 -33.75 L 23.3125 -33.703125 L 24.328125 -33.265625 L 24.8125 -32.296875 L 24.671875 -31.375 L 24.625 -30.328125 L 24.765625 -29.40625 L 24.859375 -27.421875 L 24.328125 -26.546875 L 23.3125 -26.03125 L 14.046875 -25.96875 L 12.546875 -25.546875 L 12.0625 -24.140625 L 12.171875 -22.640625 L 12.75 -21.78125 L 13.5625 -21.25 L 17.375 -21.296875 L 18.484375 -21.203125 L 19.5 -21.203125 L 20.46875 -21.296875 L 22.40625 -21.25 L 23.21875 -20.71875 L 23.65625 -19.796875 L 23.75 -18.828125 L 23.65625 -15.015625 L 23.171875 -14.09375 L 22.203125 -13.5625 L 21.34375 -13.515625 L 20.328125 -13.609375 L 19.015625 -13.515625 L 16.46875 -13.65625 L 15.5 -13.5625 L 13.609375 -13.5625 L 12.75 -13.03125 L 12.3125 -12.015625 L 12.265625 -9.65625 L 12.703125 -8.15625 L 13.71875 -7.578125 L 14.78125 -7.671875 L 15.84375 -7.578125 L 16.75 -7.71875 L 23.125 -7.625 L 24.578125 -7.140625 L 25.203125 -6.1875 L 25.109375 -5.265625 L 25.15625 -2.265625 L 25.0625 -1.359375 L 24.625 -0.4375 L 23.609375 0.046875 L 22.6875 0.140625 L 19.75 -0.046875 L 16.796875 0.09375 L 15.9375 -0.046875 L 5.015625 0.046875 L 4.109375 -0.484375 Z M 3.46875 -1.40625 "/></g></g></g><g fill="#e3e3e3" fill-opacity="1"><g transform="translate(168.404138, 65.382262)"><g><path d="M 3.625 -1.5 L 3.71875 -3.328125 L 3.578125 -7.1875 L 3.671875 -8.15625 L 3.578125 -12.015625 L 3.71875 -13.90625 L 3.578125 -14.921875 L 3.71875 -15.84375 L 3.578125 -17.90625 L 3.71875 -19.75 L 3.53125 -23.609375 L 3.671875 -24.578125 L 3.53125 -25.546875 L 3.671875 -26.609375 L 3.578125 -28.4375 L 3.625 -29.40625 L 3.53125 -30.375 L 3.53125 -32.34375 L 4.25 -33.265625 L 5.125 -33.796875 L 6.125 -33.75 L 7 -33.796875 L 7.96875 -33.703125 L 11.0625 -33.796875 L 12.015625 -33.703125 L 18.875 -33.65625 L 20.859375 -33.265625 L 23.515625 -32.390625 L 24.484375 -31.90625 L 26.265625 -30.796875 L 27.609375 -29.5 L 28.4375 -28.875 L 29.6875 -27.375 L 30.078125 -26.546875 L 31.1875 -24.90625 L 31.90625 -22.984375 L 32.15625 -22.109375 L 32.25 -21.09375 L 32.96875 -18.34375 L 32.78125 -15.25 L 32.828125 -14.4375 L 32.59375 -13.421875 L 32.4375 -12.40625 L 32.109375 -11.546875 L 31.90625 -10.578125 L 31.4375 -9.65625 L 31.1875 -8.734375 L 29.6875 -6.328125 L 27.765625 -4.109375 L 23.65625 -1.359375 L 20.859375 -0.484375 L 17.765625 -0.046875 L 9.078125 0 L 8.0625 0.140625 L 7.09375 0.140625 L 6.078125 0 L 4.96875 0 L 4.203125 -0.4375 Z M 13.859375 -7.765625 L 17.859375 -7.96875 L 19.609375 -8.453125 L 20.5625 -8.9375 L 21.34375 -9.421875 L 21.921875 -10.1875 L 22.546875 -10.859375 L 23.171875 -11.734375 L 23.90625 -13.46875 L 24.1875 -14.390625 L 24.4375 -16.75 L 24.28125 -18.25 L 23.703125 -21.09375 L 23.078125 -21.875 L 22.546875 -22.78125 L 21.34375 -24.140625 L 19.703125 -25.203125 L 17.765625 -25.78125 L 16.3125 -25.875 L 15.3125 -25.828125 L 14.296875 -25.875 L 12.890625 -25.34375 L 12.3125 -24.484375 L 12.3125 -12.0625 L 12.171875 -11.109375 L 12.359375 -10.234375 L 12.265625 -9.265625 L 12.703125 -8.203125 Z M 13.859375 -7.765625 "/></g></g></g><g fill="#e3e3e3" fill-opacity="1"><g transform="translate(203.500379, 65.382262)"><g/></g></g><g fill="#e3e3e3" fill-opacity="1"><g transform="translate(216.58303, 65.382262)"><g><path d="M 12.59375 0.09375 L 11.109375 0.046875 L 9.703125 -0.4375 L 9.078125 -1.5 L 9.171875 -2.40625 L 9.21875 -5.21875 L 9.125 -6.234375 L 9.171875 -10.140625 L 9.265625 -11.109375 L 9.125 -18.296875 L 9.21875 -19.65625 L 9.171875 -20.609375 L 9.21875 -21.671875 L 9.125 -23.03125 L 9.21875 -24.578125 L 8.6875 -25.546875 L 7.765625 -26.03125 L 3.1875 -26.125 L 2.21875 -26.03125 L 1.359375 -26.5 L 0.921875 -27.375 L 0.828125 -28.875 L 0.921875 -31.28125 L 0.875 -32.25 L 1.453125 -33.359375 L 2.359375 -33.84375 L 5.75 -33.65625 L 7.234375 -33.796875 L 10.09375 -33.65625 L 10.953125 -33.84375 L 12.015625 -33.75 L 13.03125 -33.890625 L 13.953125 -33.84375 L 14.921875 -33.65625 L 18.828125 -33.84375 L 19.75 -33.75 L 20.765625 -33.890625 L 21.671875 -33.796875 L 24.671875 -33.796875 L 25.59375 -33.171875 L 26.125 -32.203125 L 26.078125 -27.609375 L 25.5 -26.546875 L 24.671875 -26.03125 L 23.796875 -26.078125 L 22.78125 -25.921875 L 21 -26.171875 L 19.125 -26.078125 L 18.203125 -25.5 L 17.8125 -24.046875 L 17.671875 -19.84375 L 17.8125 -18.828125 L 17.71875 -11.0625 L 17.859375 -10 L 17.765625 -9.125 L 17.8125 -7.1875 L 17.71875 -6.1875 L 17.859375 -4.34375 L 17.71875 -1.828125 L 17.234375 -0.484375 L 15.84375 0 Z M 12.59375 0.09375 "/></g></g></g><g fill="#e3e3e3" fill-opacity="1"><g transform="translate(243.569001, 65.382262)"><g><path d="M 3.71875 -1.546875 L 3.578125 -5.3125 L 3.671875 -6.328125 L 3.46875 -9.125 L 3.625 -11.109375 L 3.46875 -12.171875 L 3.53125 -14 L 3.625 -15.015625 L 3.625 -17.421875 L 3.46875 -18.828125 L 3.625 -32.34375 L 4 -33.359375 L 4.921875 -33.796875 L 5.984375 -33.75 L 6.90625 -33.890625 L 8.890625 -33.703125 L 9.796875 -33.84375 L 12.703125 -33.75 L 13.515625 -33.84375 L 14.578125 -33.75 L 15.546875 -33.84375 L 16.609375 -33.796875 L 18.015625 -33.84375 L 19.21875 -33.75 L 23.21875 -32.921875 L 24.90625 -32.0625 L 27.328125 -30.21875 L 27.765625 -29.5 L 28.4375 -28.78125 L 29.734375 -26.125 L 29.984375 -25.15625 L 30.125 -24.234375 L 30.375 -23.3125 L 30.328125 -19.5 L 29.796875 -17.671875 L 29.453125 -16.84375 L 28.921875 -15.984375 L 28.578125 -15.0625 L 28 -14.25 L 26.65625 -12.9375 L 26.125 -11.921875 L 26.265625 -10.765625 L 27.71875 -8.25 L 28.34375 -7.484375 L 28.828125 -6.609375 L 29.40625 -5.75 L 29.84375 -4.921875 L 31.375 -2.5625 L 32.015625 -1.359375 L 31.8125 -0.34375 L 30.796875 -0.09375 L 29.734375 0 L 27.8125 0 L 26.84375 -0.09375 L 25.78125 0 L 24.046875 -0.09375 L 22.84375 -0.390625 L 21.875 -1.25 L 21.296875 -2.03125 L 20.859375 -2.84375 L 20.234375 -3.765625 L 18.875 -6.1875 L 18.546875 -7.09375 L 17.28125 -8.78125 L 16.515625 -9.609375 L 15.3125 -10 L 14.4375 -9.953125 L 13.5625 -9.953125 L 12.59375 -9.46875 L 12.171875 -8.5 L 12.265625 -5.5 L 12.125 -3.421875 L 12.3125 -2.40625 L 12.21875 -1.40625 L 11.875 -0.484375 L 10.375 0 L 8.9375 0 L 7.921875 -0.09375 L 5.9375 0.046875 L 5.015625 0 L 4.0625 -0.484375 Z M 13.5625 -17.765625 L 14.625 -17.765625 L 15.59375 -17.625 L 19.359375 -17.953125 L 20.078125 -18.296875 L 20.671875 -18.875 L 21.203125 -19.703125 L 21.578125 -20.671875 L 21.71875 -21.96875 L 21.625 -23.375 L 21.296875 -24.140625 L 20.8125 -24.859375 L 19.3125 -25.78125 L 17.09375 -26.078125 L 14.4375 -26.125 L 13.65625 -26.078125 L 12.703125 -25.59375 L 12.125 -24.625 L 12.265625 -19.21875 L 12.75 -18.203125 Z M 13.5625 -17.765625 "/></g></g></g><g fill="#e3e3e3" fill-opacity="1"><g transform="translate(277.023879, 65.382262)"><g><path d="M 0.625 -1.296875 L 1.203125 -3.328125 L 1.640625 -4.296875 L 2.21875 -5.0625 L 3.625 -8.59375 L 4.96875 -11.109375 L 5.3125 -12.0625 L 5.75 -12.84375 L 6.03125 -13.859375 L 6.71875 -15.109375 L 7.046875 -16.03125 L 7.765625 -17.28125 L 8.546875 -19.015625 L 9.078125 -19.890625 L 9.3125 -20.71875 L 12.015625 -26.796875 L 12.546875 -27.671875 L 14.625 -32.015625 L 14.921875 -32.875 L 15.84375 -33.75 L 17.375 -34.234375 L 19.015625 -33.796875 L 19.890625 -32.875 L 20.1875 -31.96875 L 20.609375 -31.234375 L 21.390625 -29.40625 L 22.359375 -27.609375 L 23.078125 -25.921875 L 23.3125 -25.15625 L 24.1875 -23.3125 L 24.484375 -22.40625 L 25.4375 -20.71875 L 25.6875 -19.796875 L 26.171875 -18.96875 L 26.546875 -18.15625 L 27.078125 -17.28125 L 27.375 -16.3125 L 27.8125 -15.59375 L 28.140625 -14.625 L 28.578125 -13.8125 L 28.96875 -12.84375 L 29.5 -12.0625 L 30.171875 -10.28125 L 30.65625 -9.46875 L 31 -8.546875 L 31.8125 -6.8125 L 32.109375 -5.890625 L 32.59375 -5.171875 L 32.875 -4.203125 L 33.5 -3.375 L 33.84375 -2.515625 L 34.140625 -1.296875 L 33.9375 -0.296875 L 33.078125 0 L 30.078125 0.09375 L 28.390625 -0.046875 L 27.515625 0.046875 L 26.265625 -0.4375 L 25.4375 -1.203125 L 24.90625 -2.078125 L 24.671875 -2.9375 L 23.65625 -3.71875 L 22.0625 -4.25 L 19.796875 -4.15625 L 18.78125 -4.25 L 17.90625 -4.25 L 16.796875 -4.109375 L 15.78125 -4.25 L 13.078125 -4.203125 L 12.125 -4.296875 L 10.953125 -3.8125 L 10.140625 -2.890625 L 9.3125 -1.25 L 8.453125 -0.390625 L 7.34375 0.09375 L 6.078125 -0.046875 L 1.828125 -0.046875 L 0.875 -0.296875 Z M 15.546875 -11.921875 L 19.3125 -11.96875 L 20.140625 -12.359375 L 20.234375 -13.234375 L 19.890625 -14.09375 L 19.40625 -15.0625 L 19.21875 -15.84375 L 18.6875 -16.65625 L 18.0625 -18.546875 L 17.484375 -18.921875 L 16.84375 -18.4375 L 16.421875 -17.671875 L 14.484375 -13.28125 L 14.625 -12.3125 Z M 15.546875 -11.921875 "/></g></g></g><g fill="#e3e3e3" fill-opacity="1"><g transform="translate(312.071836, 65.382262)"><g><path d="M 28.484375 -0.765625 L 27.859375 -1.40625 L 27.28125 -2.125 L 26.5 -2.75 L 25.875 -3.53125 L 21.203125 -8.203125 L 20.421875 -8.828125 L 13.515625 -15.59375 L 12.890625 -15.734375 L 12.40625 -15.15625 L 12.59375 -14.140625 L 12.453125 -2.3125 L 12.59375 -1.359375 L 12.171875 -0.390625 L 11.203125 0.09375 L 10.09375 0 L 9.078125 0.140625 L 6.65625 0 L 5.015625 0.09375 L 4.109375 -0.4375 L 3.671875 -1.5 L 3.671875 -2.40625 L 3.53125 -3.375 L 3.671875 -5.21875 L 3.578125 -6.1875 L 3.625 -8.15625 L 3.46875 -9.171875 L 3.46875 -10.09375 L 3.578125 -11.15625 L 3.578125 -12.0625 L 3.671875 -12.9375 L 3.46875 -19.84375 L 3.625 -20.859375 L 3.578125 -21.875 L 3.671875 -22.734375 L 3.53125 -24.71875 L 3.625 -25.6875 L 3.53125 -32.4375 L 4.15625 -33.359375 L 5.3125 -33.9375 L 6.609375 -33.5625 L 8.546875 -32.25 L 11.15625 -29.59375 L 11.78125 -28.78125 L 12.59375 -28.203125 L 13.078125 -27.46875 L 14 -26.84375 L 14.53125 -26.125 L 16.03125 -24.859375 L 17.046875 -23.796875 L 17.578125 -23.125 L 18.34375 -22.546875 L 20.03125 -20.8125 L 20.765625 -20.234375 L 22.890625 -18.0625 L 23.5625 -17.859375 L 23.796875 -18.640625 L 23.75 -20.5625 L 23.953125 -21.578125 L 23.953125 -22.5 L 23.75 -23.515625 L 23.796875 -32.296875 L 24.28125 -33.3125 L 25.4375 -33.796875 L 26.40625 -33.75 L 27.28125 -33.84375 L 28.296875 -33.703125 L 29.359375 -33.796875 L 30.265625 -33.796875 L 31.234375 -33.703125 L 32.296875 -33.21875 L 32.875 -32.34375 L 32.78125 -29.84375 L 32.875 -28.390625 L 32.6875 -27.421875 L 32.6875 -25.5 L 32.78125 -24.578125 L 32.640625 -22.640625 L 32.828125 -16.84375 L 32.734375 -15.78125 L 32.921875 -14.4375 L 32.6875 -1.296875 L 32.25 -0.296875 L 31.140625 0.234375 L 29.890625 -0.140625 Z M 28.484375 -0.765625 "/></g></g></g><g fill="#e3e3e3" fill-opacity="1"><g transform="translate(348.471506, 65.382262)"><g><path d="M 14 0.390625 L 11.96875 0.234375 L 11.0625 -0.09375 L 10 -0.234375 L 6.515625 -1.828125 L 5.703125 -2.359375 L 4.296875 -3.765625 L 3.09375 -5.265625 L 2.3125 -7.1875 L 2.125 -8.0625 L 2.03125 -9.125 L 2.359375 -10.140625 L 3.328125 -10.578125 L 4.296875 -10.53125 L 5.265625 -10.625 L 8.9375 -10.53125 L 9.890625 -10.140625 L 10.625 -9.171875 L 11.34375 -8.5 L 12.21875 -7.96875 L 12.9375 -7.625 L 14.046875 -7.34375 L 15.5 -7.234375 L 16.84375 -7.296875 L 18.640625 -7.828125 L 19.40625 -8.25 L 20.1875 -8.9375 L 20.46875 -10.1875 L 20.234375 -11.4375 L 19.546875 -12.015625 L 17.8125 -12.75 L 16.84375 -12.796875 L 15.984375 -12.9375 L 12.015625 -13.234375 L 10.28125 -13.609375 L 7.53125 -14.53125 L 5.84375 -15.546875 L 4.484375 -16.796875 L 3.28125 -18.390625 L 2.65625 -20.078125 L 2.3125 -21.4375 L 2.265625 -24.671875 L 2.9375 -27.46875 L 3.421875 -28.25 L 3.765625 -29.109375 L 4.390625 -29.734375 L 4.921875 -30.5625 L 5.796875 -31.140625 L 6.46875 -31.765625 L 7.4375 -32.34375 L 8.203125 -32.640625 L 8.984375 -33.125 L 9.84375 -33.453125 L 13.65625 -34.234375 L 16.375 -34.28125 L 17.421875 -34.03125 L 18.296875 -33.9375 L 19.3125 -33.75 L 21.96875 -32.828125 L 25.0625 -30.703125 L 25.6875 -29.984375 L 26.171875 -29.203125 L 26.796875 -28.4375 L 27.5625 -26.703125 L 27.953125 -24.8125 L 27.515625 -23.90625 L 26.609375 -23.3125 L 25.6875 -23.421875 L 24.8125 -23.3125 L 21.625 -23.421875 L 20.140625 -23.90625 L 18.546875 -25.59375 L 17.8125 -26.171875 L 16.75 -26.546875 L 13.65625 -26.453125 L 12.796875 -26.265625 L 12.125 -25.96875 L 11.296875 -25.34375 L 10.765625 -24.671875 L 10.625 -23.421875 L 10.671875 -22.109375 L 11.4375 -21.34375 L 12.171875 -20.953125 L 14.1875 -20.234375 L 19.078125 -19.609375 L 23.03125 -18.640625 L 25.59375 -17.484375 L 26.40625 -16.796875 L 27.5625 -15.3125 L 28.53125 -13.515625 L 28.78125 -12.59375 L 28.921875 -11.640625 L 28.875 -8.640625 L 28.734375 -7.765625 L 28.4375 -6.8125 L 28.046875 -5.9375 L 27.078125 -4.390625 L 25.734375 -2.84375 L 24.1875 -1.78125 L 21.671875 -0.4375 L 16.953125 0.484375 L 15.40625 0.53125 Z M 14 0.390625 "/></g></g></g><g fill="#e3e3e3" fill-opacity="1"><g transform="translate(379.271243, 65.382262)"><g><path d="M 3.53125 -1.359375 L 3.625 -2.3125 L 3.53125 -3.421875 L 3.671875 -13.421875 L 3.46875 -14.921875 L 3.578125 -15.984375 L 3.578125 -16.953125 L 3.671875 -17.859375 L 3.53125 -18.734375 L 3.578125 -25.59375 L 3.671875 -26.5 L 3.46875 -32.296875 L 4 -33.21875 L 4.921875 -33.703125 L 16.46875 -33.703125 L 17.375 -33.796875 L 18.296875 -33.703125 L 19.3125 -33.75 L 20.328125 -33.703125 L 22.0625 -33.84375 L 23.21875 -33.703125 L 24.09375 -33.265625 L 24.578125 -32.34375 L 24.671875 -31.328125 L 24.578125 -30.328125 L 24.671875 -29.40625 L 24.578125 -28.4375 L 24.578125 -27.515625 L 24.234375 -26.546875 L 23.3125 -26.125 L 22.359375 -25.96875 L 20.375 -26.078125 L 19.40625 -25.96875 L 17.046875 -26.125 L 15.640625 -26.03125 L 14.25 -26.078125 L 12.84375 -25.59375 L 12.359375 -24.625 L 12.40625 -23.796875 L 12.265625 -22.78125 L 12.265625 -19.9375 L 12.796875 -19.078125 L 13.90625 -18.6875 L 21.25 -18.6875 L 22.6875 -18.203125 L 23.171875 -17.1875 L 23.3125 -16.265625 L 23.21875 -13.375 L 23.265625 -12.3125 L 22.734375 -11.34375 L 21.828125 -10.90625 L 14.296875 -10.859375 L 12.84375 -10.375 L 12.40625 -9.359375 L 12.3125 -8.359375 L 12.359375 -7.4375 L 12.3125 -6.515625 L 12.453125 -4.4375 L 12.359375 -3.421875 L 12.40625 -1.9375 L 11.78125 -0.4375 L 10.8125 0.046875 L 5.5 0.09375 L 4 -0.4375 Z M 3.53125 -1.359375 "/></g></g></g><g fill="#e3e3e3" fill-opacity="1"><g transform="translate(405.58137, 65.382262)"><g><path d="M 3.46875 -1.40625 L 3.671875 -2.359375 L 3.71875 -3.328125 L 3.625 -5.21875 L 3.625 -6.1875 L 3.53125 -7.296875 L 3.671875 -8.15625 L 3.625 -9.078125 L 3.71875 -10.140625 L 3.578125 -11.15625 L 3.671875 -13.078125 L 3.53125 -14.96875 L 3.671875 -15.984375 L 3.671875 -24.625 L 3.578125 -25.5 L 3.671875 -26.5 L 3.46875 -28.96875 L 3.671875 -30.375 L 3.578125 -32.296875 L 4.0625 -33.359375 L 5.453125 -33.703125 L 11.78125 -33.84375 L 12.65625 -33.75 L 14.53125 -33.796875 L 15.5 -33.703125 L 17.625 -33.796875 L 18.59375 -33.65625 L 19.453125 -33.75 L 23.3125 -33.703125 L 24.328125 -33.265625 L 24.8125 -32.296875 L 24.671875 -31.375 L 24.625 -30.328125 L 24.765625 -29.40625 L 24.859375 -27.421875 L 24.328125 -26.546875 L 23.3125 -26.03125 L 14.046875 -25.96875 L 12.546875 -25.546875 L 12.0625 -24.140625 L 12.171875 -22.640625 L 12.75 -21.78125 L 13.5625 -21.25 L 17.375 -21.296875 L 18.484375 -21.203125 L 19.5 -21.203125 L 20.46875 -21.296875 L 22.40625 -21.25 L 23.21875 -20.71875 L 23.65625 -19.796875 L 23.75 -18.828125 L 23.65625 -15.015625 L 23.171875 -14.09375 L 22.203125 -13.5625 L 21.34375 -13.515625 L 20.328125 -13.609375 L 19.015625 -13.515625 L 16.46875 -13.65625 L 15.5 -13.5625 L 13.609375 -13.5625 L 12.75 -13.03125 L 12.3125 -12.015625 L 12.265625 -9.65625 L 12.703125 -8.15625 L 13.71875 -7.578125 L 14.78125 -7.671875 L 15.84375 -7.578125 L 16.75 -7.71875 L 23.125 -7.625 L 24.578125 -7.140625 L 25.203125 -6.1875 L 25.109375 -5.265625 L 25.15625 -2.265625 L 25.0625 -1.359375 L 24.625 -0.4375 L 23.609375 0.046875 L 22.6875 0.140625 L 19.75 -0.046875 L 16.796875 0.09375 L 15.9375 -0.046875 L 5.015625 0.046875 L 4.109375 -0.484375 Z M 3.46875 -1.40625 "/></g></g></g><g fill="#e3e3e3" fill-opacity="1"><g transform="translate(433.243186, 65.382262)"><g><path d="M 3.71875 -1.546875 L 3.578125 -5.3125 L 3.671875 -6.328125 L 3.46875 -9.125 L 3.625 -11.109375 L 3.46875 -12.171875 L 3.53125 -14 L 3.625 -15.015625 L 3.625 -17.421875 L 3.46875 -18.828125 L 3.625 -32.34375 L 4 -33.359375 L 4.921875 -33.796875 L 5.984375 -33.75 L 6.90625 -33.890625 L 8.890625 -33.703125 L 9.796875 -33.84375 L 12.703125 -33.75 L 13.515625 -33.84375 L 14.578125 -33.75 L 15.546875 -33.84375 L 16.609375 -33.796875 L 18.015625 -33.84375 L 19.21875 -33.75 L 23.21875 -32.921875 L 24.90625 -32.0625 L 27.328125 -30.21875 L 27.765625 -29.5 L 28.4375 -28.78125 L 29.734375 -26.125 L 29.984375 -25.15625 L 30.125 -24.234375 L 30.375 -23.3125 L 30.328125 -19.5 L 29.796875 -17.671875 L 29.453125 -16.84375 L 28.921875 -15.984375 L 28.578125 -15.0625 L 28 -14.25 L 26.65625 -12.9375 L 26.125 -11.921875 L 26.265625 -10.765625 L 27.71875 -8.25 L 28.34375 -7.484375 L 28.828125 -6.609375 L 29.40625 -5.75 L 29.84375 -4.921875 L 31.375 -2.5625 L 32.015625 -1.359375 L 31.8125 -0.34375 L 30.796875 -0.09375 L 29.734375 0 L 27.8125 0 L 26.84375 -0.09375 L 25.78125 0 L 24.046875 -0.09375 L 22.84375 -0.390625 L 21.875 -1.25 L 21.296875 -2.03125 L 20.859375 -2.84375 L 20.234375 -3.765625 L 18.875 -6.1875 L 18.546875 -7.09375 L 17.28125 -8.78125 L 16.515625 -9.609375 L 15.3125 -10 L 14.4375 -9.953125 L 13.5625 -9.953125 L 12.59375 -9.46875 L 12.171875 -8.5 L 12.265625 -5.5 L 12.125 -3.421875 L 12.3125 -2.40625 L 12.21875 -1.40625 L 11.875 -0.484375 L 10.375 0 L 8.9375 0 L 7.921875 -0.09375 L 5.9375 0.046875 L 5.015625 0 L 4.0625 -0.484375 Z M 13.5625 -17.765625 L 14.625 -17.765625 L 15.59375 -17.625 L 19.359375 -17.953125 L 20.078125 -18.296875 L 20.671875 -18.875 L 21.203125 -19.703125 L 21.578125 -20.671875 L 21.71875 -21.96875 L 21.625 -23.375 L 21.296875 -24.140625 L 20.8125 -24.859375 L 19.3125 -25.78125 L 17.09375 -26.078125 L 14.4375 -26.125 L 13.65625 -26.078125 L 12.703125 -25.59375 L 12.125 -24.625 L 12.265625 -19.21875 L 12.75 -18.203125 Z M 13.5625 -17.765625 "/></g></g></g></svg>