<svg xmlns="http://www.w3.org/2000/svg" xmlns:xlink="http://www.w3.org/1999/xlink" width="308" zoomAndPan="magnify" viewBox="0 0 230.87999 187.499995" height="250" preserveAspectRatio="xMidYMid meet" version="1.0"><path fill="#38b6ff" d="M 218.460938 86.773438 L 115.136719 134.363281 L 11.8125 86.773438 C 8.125 85.074219 3.742188 86.679688 2.039062 90.390625 C 0.339844 94.078125 1.945312 98.460938 5.65625 100.164062 L 112.046875 149.191406 C 113.027344 149.644531 114.082031 149.859375 115.136719 149.859375 C 116.191406 149.859375 117.242188 149.644531 118.226562 149.191406 L 224.617188 100.164062 C 228.304688 98.460938 229.933594 94.078125 228.230469 90.390625 C 226.53125 86.679688 222.148438 85.050781 218.460938 86.773438 Z M 218.460938 86.773438 " fill-opacity="1" fill-rule="nonzero"/><path fill="#38b6ff" d="M 218.460938 123.609375 L 115.136719 171.203125 L 11.8125 123.609375 C 8.125 121.910156 3.742188 123.515625 2.039062 127.226562 C 0.339844 130.914062 1.945312 135.296875 5.65625 137 L 112.046875 186.027344 C 113.027344 186.480469 114.082031 186.699219 115.136719 186.699219 C 116.191406 186.699219 117.242188 186.480469 118.226562 186.027344 L 224.617188 137 C 228.304688 135.296875 229.933594 130.914062 228.230469 127.226562 C 226.53125 123.515625 222.148438 121.910156 218.460938 123.609375 Z M 218.460938 123.609375 " fill-opacity="1" fill-rule="nonzero"/><path fill="#38b6ff" d="M 5.65625 63.300781 L 112.046875 112.328125 C 113.027344 112.785156 114.082031 113 115.136719 113 C 116.191406 113 117.242188 112.785156 118.226562 112.328125 L 224.617188 63.300781 C 227.226562 62.105469 228.902344 59.492188 228.902344 56.621094 C 228.902344 53.746094 227.226562 51.136719 224.617188 49.9375 L 118.226562 0.910156 C 116.261719 0 114.011719 0 112.070312 0.910156 L 5.65625 49.914062 C 3.046875 51.136719 1.371094 53.746094 1.371094 56.621094 C 1.371094 59.492188 3.046875 62.105469 5.65625 63.300781 Z M 115.136719 15.710938 L 203.921875 56.621094 L 115.136719 97.527344 L 26.351562 56.621094 Z M 115.136719 15.710938 " fill-opacity="1" fill-rule="nonzero"/></svg>